<svg xmlns="http://www.w3.org/2000/svg" width="12" height="19.5" viewBox="0 0 12 19.5"><defs><style>.a{fill:#fff;stroke:rgba(0,0,0,0);stroke-miterlimit:10;}.b{fill:#000f08;}.c{fill:#a70a1c;}.d{fill:#005129;}</style></defs><g transform="translate(-82.387 -114.015)"><path class="a" d="M2,0H8a2,2,0,0,1,2,2V18a0,0,0,0,1,0,0H0a0,0,0,0,1,0,0V2A2,2,0,0,1,2,0Z" transform="translate(83.387 115.015)"/><path class="b" d="M9.857,19H2.143a2.252,2.252,0,0,1-1.515-.579A1.9,1.9,0,0,1,0,17.021V1.979A2.068,2.068,0,0,1,2.143,0H9.857A2.068,2.068,0,0,1,12,1.979V17.021A2.068,2.068,0,0,1,9.857,19Zm-9-3.167v1.188a1.241,1.241,0,0,0,1.286,1.188H9.857a1.241,1.241,0,0,0,1.286-1.188V15.833ZM2.143.792A1.241,1.241,0,0,0,.857,1.979V15.042H11.143V1.979A1.241,1.241,0,0,0,9.857.792Z" transform="translate(82.387 114.015)"/><ellipse class="b" cx="0.84" cy="0.816" rx="0.84" ry="0.816" transform="translate(87.359 130.746)"/><g transform="translate(84.118 119.951)"><path class="c" d="M265.58,155.263a1.343,1.343,0,1,0,1.344,1.344A1.344,1.344,0,0,0,265.58,155.263Z" transform="translate(-261.466 -153.611)"/><path class="d" d="M202.77,116.034l-.09-.026a10.048,10.048,0,0,1,1.133-.268,10.35,10.35,0,0,0-1.559.1l-.182.031-.183-.031a10.343,10.343,0,0,0-1.559-.1,10.044,10.044,0,0,1,1.133.268l-.091.026c-2.006.629-3.518,2-3.409,3.129.09.935,1.043,1.409,2.6,1.247-.864-.156-1.218-.594-1.282-1.255-.1-1.014,1.051-2.212,2.683-2.9l.111-.043.111.043c1.631.689,2.78,1.888,2.683,2.9-.063.662-.418,1.1-1.282,1.255,1.554.162,2.507-.312,2.6-1.247C206.289,118.037,204.777,116.662,202.77,116.034Z" transform="translate(-197.957 -115.74)"/></g></g></svg>