<svg xmlns="http://www.w3.org/2000/svg" width="21.837" height="19.162" viewBox="0 0 21.837 19.162"><defs><style>.a{fill:#000f08;}</style></defs><g transform="translate(0 -0.102)"><path class="a" d="M21.788,13.786a1.447,1.447,0,0,0-1.18-1.048V4.44h.723a.362.362,0,0,0,.362-.362V.463A.361.361,0,0,0,21.331.1H5.423a.361.361,0,0,0-.362.362V4.079a.362.362,0,0,0,.362.362h.723v7.231H5.785a4.656,4.656,0,0,0-2.531.741V10.586a.361.361,0,0,0-.362-.362H.362A.361.361,0,0,0,0,10.586V18.9a.362.362,0,0,0,.362.362H2.892a.362.362,0,0,0,.362-.362V17.076a4.661,4.661,0,0,0,2.531.741h5.936a4.761,4.761,0,0,0,1.218-.161l7.828-2.1A1.452,1.452,0,0,0,21.788,13.786ZM5.785.825H20.969V3.717H5.785ZM6.869,4.44H19.885V12.8l-4.2,1.125a1.453,1.453,0,0,0-.956-.84L9.861,11.779a3.286,3.286,0,0,0-.84-.108H6.869ZM2.531,18.54H.723V10.948H2.531Zm18.048-3.679-7.826,2.1a4.024,4.024,0,0,1-1.032.136H5.785A3.95,3.95,0,0,1,3.4,16.3l-.145-.108V13.3l.145-.109a3.947,3.947,0,0,1,2.386-.8H9.02a2.555,2.555,0,0,1,.655.085l4.87,1.305a.729.729,0,0,1,.531.623.353.353,0,0,0,.014.044.357.357,0,0,0-.01.047.616.616,0,0,1-.024.174.723.723,0,0,1-.7.535.713.713,0,0,1-.188-.024L11.1,14.359a.362.362,0,1,0-.187.7l3.073.824a1.47,1.47,0,0,0,.376.048,1.444,1.444,0,0,0,1.391-1.062,1.3,1.3,0,0,0,.041-.222L20.2,13.464c.031-.008.065-.016.1-.021a.723.723,0,0,1,.791.532.706.706,0,0,1,.024.187A.723.723,0,0,1,20.579,14.861Zm0,0"/><path class="a" d="M248.362,112.825h3.615a.362.362,0,1,0,0-.723h-3.615a.362.362,0,0,0,0,.723Zm0,0" transform="translate(-236.792 -106.938)"/></g></svg>