<svg xmlns="http://www.w3.org/2000/svg" viewBox="0 0 400.27 455.52"><defs><style>.cls-1{fill:#000f08;}</style></defs><g id="Capa_2" data-name="Capa 2"><g id="Capa_1-2" data-name="Capa 1"><path id="Trazado_168" data-name="Trazado 168" class="cls-1" d="M200.1,402.08a13.33,13.33,0,0,0,13.33-13.33h0V173.47a13.34,13.34,0,1,0-26.67-.08V388.75A13.33,13.33,0,0,0,200.1,402.08Z"/><path id="Trazado_169" data-name="Trazado 169" class="cls-1" d="M280.18,402.08a13.33,13.33,0,0,0,13.33-13.33h0V173.47a13.34,13.34,0,1,0-26.67,0V388.75a13.33,13.33,0,0,0,13.34,13.33Z"/><path id="Trazado_170" data-name="Trazado 170" class="cls-1" d="M120.05,402.08a13.33,13.33,0,0,0,13.33-13.33h0V173.47a13.34,13.34,0,1,0-26.67-.08V388.75A13.33,13.33,0,0,0,120.05,402.08Z"/><path id="Trazado_171" data-name="Trazado 171" class="cls-1" d="M13.29,133.43h40V442.19a13.34,13.34,0,0,0,13.34,13.33H333.55a13.33,13.33,0,0,0,13.34-13.33V133.43h40a13.34,13.34,0,0,0,0-26.68H373.59v-40a13.33,13.33,0,0,0-13.33-13.33H266.84v-40A13.33,13.33,0,0,0,253.51,0H146.72a13.34,13.34,0,0,0-13.34,13.34v40H40A13.33,13.33,0,0,0,26.66,66.71h0v40H13.33a13.34,13.34,0,0,0,0,26.68Zm306.9,295.32H80V133.43H320.19ZM160.09,26.67h80V53.34h-80ZM53.33,80.05H346.89v26.7H53.33Z"/></g></g></svg>