<svg xmlns="http://www.w3.org/2000/svg" width="331" height="170.78" viewBox="0 0 331 170.78"><defs><style>.a{fill:#006341;}.b{fill:#fff;}</style></defs><g transform="translate(-171 -124)"><rect class="a" width="331" height="154" transform="translate(171 124)"/><g transform="translate(171.056 165.606) rotate(-20)"><g transform="translate(0 53)"><g transform="translate(0)"><g transform="translate(0 31.825)"><path class="b" d="M1.511,52.635A1.515,1.515,0,0,1,.316,50.191l13.7-17.758a9.888,9.888,0,0,0-.823-12.991,12.9,12.9,0,0,1,.983-19.1,1.514,1.514,0,0,1,1.906,2.353A9.865,9.865,0,0,0,15.332,17.3a12.933,12.933,0,0,1,1.077,16.99L2.707,52.047A1.511,1.511,0,0,1,1.511,52.635Z" transform="translate(0.557 0.207)"/><path class="b" d="M0,4.547A4.535,4.535,0,1,1,4.534,9.093,4.545,4.545,0,0,1,0,4.547Z" transform="translate(25.886 6.586)"/><path class="b" d="M1.511,8.335A1.515,1.515,0,0,1,.443,5.748l5.29-5.3A1.513,1.513,0,0,1,7.87,2.587l-5.29,5.3A1.5,1.5,0,0,1,1.511,8.335Z" transform="translate(16.428 44.106)"/></g><g transform="translate(45.902)"><path class="b" d="M1.511,52.635A1.515,1.515,0,0,1,.316,50.191l13.7-17.758a9.887,9.887,0,0,0-.824-12.99,12.9,12.9,0,0,1,.982-19.1,1.514,1.514,0,0,1,1.907,2.353A9.867,9.867,0,0,0,15.332,17.3,12.932,12.932,0,0,1,16.41,34.289L2.707,52.047A1.511,1.511,0,0,1,1.511,52.635Z" transform="translate(8.064 0.2)"/><path class="b" d="M.443,11.678a1.516,1.516,0,0,1-.382-1.5l1.2-4.12L.061,1.94A1.514,1.514,0,0,1,1.937.059L6.046,1.266,10.156.059A1.513,1.513,0,0,1,12.03,1.94l-1.2,4.12,1.2,4.12a1.513,1.513,0,0,1-1.45,1.941,1.567,1.567,0,0,1-.425-.06L6.046,10.853,1.937,12.061a1.514,1.514,0,0,1-1.494-.383Z" transform="translate(0.506 18.337)"/><path class="b" d="M0,4.547A4.535,4.535,0,1,1,4.534,9.093,4.545,4.545,0,0,1,0,4.547Z" transform="translate(33.393 6.58)"/><path class="b" d="M7.051,8.585a1.5,1.5,0,0,1-1.069-.444L.443,2.587A1.513,1.513,0,0,1,2.58.444L8.12,6A1.515,1.515,0,0,1,7.051,8.585Z" transform="translate(35.271 34.138)"/><path class="b" d="M1.511,8.335A1.515,1.515,0,0,1,.443,5.748l5.29-5.3A1.513,1.513,0,0,1,7.87,2.587l-5.29,5.3A1.5,1.5,0,0,1,1.511,8.335Z" transform="translate(23.935 44.098)"/></g></g><path class="b" d="M3.785,18.7a1.542,1.542,0,0,1-.6-1.5l.845-5L.455,8.667A1.547,1.547,0,0,1,.074,7.1,1.513,1.513,0,0,1,1.291,6.059L6.232,5.33,8.441.784a1.557,1.557,0,0,1,2.7,0L13.353,5.33l4.94.729A1.513,1.513,0,0,1,19.511,7.1a1.547,1.547,0,0,1-.382,1.569l-3.576,3.539.845,5a1.543,1.543,0,0,1-.6,1.5,1.485,1.485,0,0,1-1.587.116l-4.42-2.359L5.373,18.815a1.476,1.476,0,0,1-.7.176A1.5,1.5,0,0,1,3.785,18.7Z" transform="translate(9.024 2.967)"/></g><g transform="translate(92 123)"><g transform="translate(0 0)"><g transform="translate(0 0.371)"><path class="b" d="M0,4.547A4.535,4.535,0,1,1,4.534,9.093,4.545,4.545,0,0,1,0,4.547Z" transform="translate(0.886 0.586)"/><path class="b" d="M0,4.547A4.535,4.535,0,1,1,4.534,9.093,4.545,4.545,0,0,1,0,4.547Z" transform="translate(117.959 45.583)"/></g></g></g><g transform="translate(142 59)"><g transform="translate(0 24)"><g transform="translate(0 31.825)"><path class="b" d="M1.511,52.635A1.515,1.515,0,0,1,.316,50.191l13.7-17.758a9.888,9.888,0,0,0-.823-12.991,12.9,12.9,0,0,1,.983-19.1,1.514,1.514,0,0,1,1.906,2.353A9.865,9.865,0,0,0,15.332,17.3a12.933,12.933,0,0,1,1.077,16.99L2.707,52.047A1.511,1.511,0,0,1,1.511,52.635Z" transform="translate(7.557 0.207)"/><path class="b" d="M.443,11.678a1.516,1.516,0,0,1-.382-1.5l1.2-4.12L.061,1.94A1.514,1.514,0,0,1,1.937.059L6.046,1.266,10.156.059A1.513,1.513,0,0,1,12.03,1.94l-1.2,4.12,1.2,4.12a1.513,1.513,0,0,1-1.45,1.941,1.567,1.567,0,0,1-.425-.06L6.046,10.853,1.937,12.061a1.514,1.514,0,0,1-1.494-.383Z" transform="translate(0 18.345)"/><path class="b" d="M.443,11.678a1.516,1.516,0,0,1-.382-1.5l1.2-4.12L.061,1.94A1.514,1.514,0,0,1,1.937.059L6.046,1.266,10.156.059A1.513,1.513,0,0,1,12.03,1.94l-1.2,4.12,1.2,4.12a1.513,1.513,0,0,1-1.45,1.941,1.567,1.567,0,0,1-.425-.06L6.046,10.853,1.937,12.061a1.514,1.514,0,0,1-1.494-.383Z" transform="translate(117.072 63.342)"/><path class="b" d="M0,4.547A4.535,4.535,0,1,1,4.534,9.093,4.545,4.545,0,0,1,0,4.547Z" transform="translate(32.886 6.586)"/><path class="b" d="M7.051,8.585a1.5,1.5,0,0,1-1.069-.444L.443,2.587A1.513,1.513,0,0,1,2.58.444L8.12,6A1.515,1.515,0,0,1,7.051,8.585Z" transform="translate(34.764 34.146)"/><path class="b" d="M1.511,8.335A1.515,1.515,0,0,1,.443,5.748l5.29-5.3A1.513,1.513,0,0,1,7.87,2.587l-5.29,5.3A1.5,1.5,0,0,1,1.511,8.335Z" transform="translate(23.428 44.106)"/></g><g transform="translate(52.902)"><path class="b" d="M1.511,52.635A1.515,1.515,0,0,1,.316,50.191l13.7-17.758a9.887,9.887,0,0,0-.824-12.99,12.9,12.9,0,0,1,.982-19.1,1.514,1.514,0,0,1,1.907,2.353A9.867,9.867,0,0,0,15.332,17.3,12.932,12.932,0,0,1,16.41,34.289L2.707,52.047A1.511,1.511,0,0,1,1.511,52.635Z" transform="translate(8.064 0.2)"/><path class="b" d="M.443,11.678a1.516,1.516,0,0,1-.382-1.5l1.2-4.12L.061,1.94A1.514,1.514,0,0,1,1.937.059L6.046,1.266,10.156.059A1.513,1.513,0,0,1,12.03,1.94l-1.2,4.12,1.2,4.12a1.513,1.513,0,0,1-1.45,1.941,1.567,1.567,0,0,1-.425-.06L6.046,10.853,1.937,12.061a1.514,1.514,0,0,1-1.494-.383Z" transform="translate(0.506 18.337)"/><path class="b" d="M0,4.547A4.535,4.535,0,1,1,4.534,9.093,4.545,4.545,0,0,1,0,4.547Z" transform="translate(33.393 6.58)"/><path class="b" d="M7.051,8.585a1.5,1.5,0,0,1-1.069-.444L.443,2.587A1.513,1.513,0,0,1,2.58.444L8.12,6A1.515,1.515,0,0,1,7.051,8.585Z" transform="translate(35.271 34.138)"/><path class="b" d="M1.511,8.335A1.515,1.515,0,0,1,.443,5.748l5.29-5.3A1.513,1.513,0,0,1,7.87,2.587l-5.29,5.3A1.5,1.5,0,0,1,1.511,8.335Z" transform="translate(23.935 44.098)"/></g></g><path class="b" d="M14.211,18.815,9.792,16.456l-4.42,2.359A1.485,1.485,0,0,1,3.785,18.7a1.538,1.538,0,0,1-.6-1.5l.843-5L.455,8.667A1.547,1.547,0,0,1,.074,7.1,1.513,1.513,0,0,1,1.291,6.059l4.94-.729L8.44.784a1.558,1.558,0,0,1,2.7,0L13.352,5.33l4.942.729A1.513,1.513,0,0,1,19.511,7.1a1.547,1.547,0,0,1-.382,1.569l-3.577,3.539.845,5a1.542,1.542,0,0,1-.6,1.5,1.486,1.486,0,0,1-1.588.116Z" transform="translate(49.852 86.908)"/><path class="b" d="M3.785,18.7a1.542,1.542,0,0,1-.6-1.5l.845-5L.455,8.667A1.547,1.547,0,0,1,.074,7.1,1.513,1.513,0,0,1,1.291,6.059L6.232,5.33,8.441.784a1.557,1.557,0,0,1,2.7,0L13.353,5.33l4.94.729A1.513,1.513,0,0,1,19.511,7.1a1.547,1.547,0,0,1-.382,1.569l-3.576,3.539.845,5a1.543,1.543,0,0,1-.6,1.5,1.485,1.485,0,0,1-1.587.116l-4.42-2.359L5.373,18.815a1.476,1.476,0,0,1-.7.176A1.5,1.5,0,0,1,3.785,18.7Z" transform="translate(16.024 26.967)"/><path class="b" d="M3.785,18.7a1.542,1.542,0,0,1-.6-1.5l.845-5L.455,8.667A1.547,1.547,0,0,1,.074,7.1,1.513,1.513,0,0,1,1.291,6.059L6.232,5.33,8.441.784a1.557,1.557,0,0,1,2.7,0L13.353,5.33l4.94.729A1.513,1.513,0,0,1,19.511,7.1a1.547,1.547,0,0,1-.382,1.569l-3.576,3.539.845,5a1.543,1.543,0,0,1-.6,1.5,1.485,1.485,0,0,1-1.587.116l-4.42-2.359L5.373,18.815a1.476,1.476,0,0,1-.7.176A1.5,1.5,0,0,1,3.785,18.7Z" transform="translate(94.443 0.744)"/></g><g transform="translate(72.863 85.716) rotate(-45)"><g transform="translate(0 31.825)"><path class="b" d="M1.511,52.635A1.515,1.515,0,0,1,.316,50.191l13.7-17.758a9.888,9.888,0,0,0-.823-12.991,12.9,12.9,0,0,1,.983-19.1,1.514,1.514,0,0,1,1.906,2.353A9.865,9.865,0,0,0,15.332,17.3a12.933,12.933,0,0,1,1.077,16.99L2.707,52.047A1.511,1.511,0,0,1,1.511,52.635Z" transform="translate(7.557 0.207)"/><path class="b" d="M1.511,52.635A1.515,1.515,0,0,1,.316,50.191l13.7-17.758a9.888,9.888,0,0,0-.823-12.991,12.9,12.9,0,0,1,.983-19.1,1.514,1.514,0,0,1,1.906,2.353A9.865,9.865,0,0,0,15.332,17.3a12.933,12.933,0,0,1,1.077,16.99L2.707,52.047A1.511,1.511,0,0,1,1.511,52.635Z" transform="translate(58.522 114.807)"/><path class="b" d="M.443,11.678a1.516,1.516,0,0,1-.382-1.5l1.2-4.12L.061,1.94A1.514,1.514,0,0,1,1.937.059L6.046,1.266,10.156.059A1.513,1.513,0,0,1,12.03,1.94l-1.2,4.12,1.2,4.12a1.513,1.513,0,0,1-1.45,1.941,1.567,1.567,0,0,1-.425-.06L6.046,10.853,1.937,12.061a1.514,1.514,0,0,1-1.494-.383Z" transform="translate(0 18.345)"/><path class="b" d="M.443,11.678a1.516,1.516,0,0,1-.382-1.5l1.2-4.12L.061,1.94A1.514,1.514,0,0,1,1.937.059L6.046,1.266,10.156.059A1.513,1.513,0,0,1,12.03,1.94l-1.2,4.12,1.2,4.12a1.513,1.513,0,0,1-1.45,1.941,1.567,1.567,0,0,1-.425-.06L6.046,10.853,1.937,12.061a1.514,1.514,0,0,1-1.494-.383Z" transform="translate(50.965 132.945)"/><path class="b" d="M0,4.547A4.535,4.535,0,1,1,4.534,9.093,4.545,4.545,0,0,1,0,4.547Z" transform="translate(32.886 6.586)"/><path class="b" d="M0,4.547A4.535,4.535,0,1,1,4.534,9.093,4.545,4.545,0,0,1,0,4.547Z" transform="translate(83.851 121.186)"/><path class="b" d="M7.051,8.585a1.5,1.5,0,0,1-1.069-.444L.443,2.587A1.513,1.513,0,0,1,2.58.444L8.12,6A1.515,1.515,0,0,1,7.051,8.585Z" transform="translate(34.764 34.146)"/><path class="b" d="M7.051,8.585a1.5,1.5,0,0,1-1.069-.444L.443,2.587A1.513,1.513,0,0,1,2.58.444L8.12,6A1.515,1.515,0,0,1,7.051,8.585Z" transform="translate(85.73 148.746)"/><path class="b" d="M1.511,8.335A1.515,1.515,0,0,1,.443,5.748l5.29-5.3A1.513,1.513,0,0,1,7.87,2.587l-5.29,5.3A1.5,1.5,0,0,1,1.511,8.335Z" transform="translate(23.428 44.106)"/><path class="b" d="M1.511,8.335A1.515,1.515,0,0,1,.443,5.748l5.29-5.3A1.513,1.513,0,0,1,7.87,2.587l-5.29,5.3A1.5,1.5,0,0,1,1.511,8.335Z" transform="translate(82.941 48.787)"/><path class="b" d="M1.511,8.335A1.515,1.515,0,0,1,.443,5.748l5.29-5.3A1.513,1.513,0,0,1,7.87,2.587l-5.29,5.3A1.5,1.5,0,0,1,1.511,8.335Z" transform="translate(74.393 158.706)"/></g><g transform="translate(52.902)"><path class="b" d="M1.511,52.635A1.515,1.515,0,0,1,.316,50.191l13.7-17.758a9.887,9.887,0,0,0-.824-12.99,12.9,12.9,0,0,1,.982-19.1,1.514,1.514,0,0,1,1.907,2.353A9.867,9.867,0,0,0,15.332,17.3,12.932,12.932,0,0,1,16.41,34.289L2.707,52.047A1.511,1.511,0,0,1,1.511,52.635Z" transform="translate(8.064 0.2)"/><path class="b" d="M.443,11.678a1.516,1.516,0,0,1-.382-1.5l1.2-4.12L.061,1.94A1.514,1.514,0,0,1,1.937.059L6.046,1.266,10.156.059A1.513,1.513,0,0,1,12.03,1.94l-1.2,4.12,1.2,4.12a1.513,1.513,0,0,1-1.45,1.941,1.567,1.567,0,0,1-.425-.06L6.046,10.853,1.937,12.061a1.514,1.514,0,0,1-1.494-.383Z" transform="translate(0.506 18.337)"/><path class="b" d="M0,4.547A4.535,4.535,0,1,1,4.534,9.093,4.545,4.545,0,0,1,0,4.547Z" transform="translate(33.393 6.58)"/><path class="b" d="M7.051,8.585a1.5,1.5,0,0,1-1.069-.444L.443,2.587A1.513,1.513,0,0,1,2.58.444L8.12,6A1.515,1.515,0,0,1,7.051,8.585Z" transform="translate(35.271 34.138)"/><path class="b" d="M1.511,8.335A1.515,1.515,0,0,1,.443,5.748l5.29-5.3A1.513,1.513,0,0,1,7.87,2.587l-5.29,5.3A1.5,1.5,0,0,1,1.511,8.335Z" transform="translate(23.935 44.098)"/></g><path class="b" d="M3.785,18.7a1.542,1.542,0,0,1-.6-1.5l.845-5L.455,8.667A1.547,1.547,0,0,1,.074,7.1,1.513,1.513,0,0,1,1.291,6.059L6.232,5.33,8.441.784a1.557,1.557,0,0,1,2.7,0L13.353,5.33l4.94.729A1.513,1.513,0,0,1,19.511,7.1a1.547,1.547,0,0,1-.382,1.569l-3.576,3.539.845,5a1.543,1.543,0,0,1-.6,1.5,1.485,1.485,0,0,1-1.587.116l-4.42-2.359L5.373,18.815a1.476,1.476,0,0,1-.7.176A1.5,1.5,0,0,1,3.785,18.7Z" transform="translate(16.024 2.967)"/><path class="b" d="M3.785,18.7a1.542,1.542,0,0,1-.6-1.5l.845-5L.455,8.667A1.547,1.547,0,0,1,.074,7.1,1.513,1.513,0,0,1,1.291,6.059L6.232,5.33,8.441.784a1.557,1.557,0,0,1,2.7,0L13.353,5.33l4.94.729A1.513,1.513,0,0,1,19.511,7.1a1.547,1.547,0,0,1-.382,1.569l-3.576,3.539.845,5a1.543,1.543,0,0,1-.6,1.5,1.485,1.485,0,0,1-1.587.116l-4.42-2.359L5.373,18.815a1.476,1.476,0,0,1-.7.176A1.5,1.5,0,0,1,3.785,18.7Z" transform="translate(99.512 131.642)"/></g><g transform="translate(167.997 46.982) rotate(-45)"><g transform="translate(0 0)"><g transform="translate(0.374 0.166)"><path class="b" d="M1.511,52.635A1.515,1.515,0,0,1,.316,50.191l13.7-17.758a9.888,9.888,0,0,0-.823-12.991,12.9,12.9,0,0,1,.983-19.1,1.514,1.514,0,0,1,1.906,2.353A9.865,9.865,0,0,0,15.332,17.3a12.933,12.933,0,0,1,1.077,16.99L2.707,52.047A1.511,1.511,0,0,1,1.511,52.635Z" transform="translate(8.118 0.358)"/><path class="b" d="M.443,11.678a1.516,1.516,0,0,1-.382-1.5l1.2-4.12L.061,1.94A1.514,1.514,0,0,1,1.937.059L6.046,1.266,10.156.059A1.513,1.513,0,0,1,12.03,1.94l-1.2,4.12,1.2,4.12a1.513,1.513,0,0,1-1.45,1.941,1.567,1.567,0,0,1-.425-.06L6.046,10.853,1.937,12.061a1.514,1.514,0,0,1-1.494-.383Z" transform="translate(0.56 18.495)"/><path class="b" d="M1.511,8.335A1.515,1.515,0,0,1,.443,5.748l5.29-5.3A1.513,1.513,0,0,1,7.87,2.587l-5.29,5.3A1.5,1.5,0,0,1,1.511,8.335Z" transform="translate(23.989 44.256)"/></g></g></g></g></g></svg>