<svg xmlns="http://www.w3.org/2000/svg" width="35.792" height="35.792" viewBox="0 0 35.792 35.792"><defs><style>.a{fill:#000f08;}</style></defs><path class="a" d="M31.912,17.269h4.881v3.254H31.912V17.269M1,17.269H5.881v3.254H1V17.269M20.523,1V5.881H17.269V1h3.254M7.378,5.067l3.465,3.482-2.31,2.294L5.067,7.394l2.31-2.327M26.95,8.533,30.4,5.067l2.327,2.327L29.26,10.843l-2.31-2.31m-8.053.6a9.766,9.766,0,0,1,4.881,18.222v2.928a1.632,1.632,0,0,1-1.627,1.627H15.642a1.632,1.632,0,0,1-1.627-1.627V27.356A9.766,9.766,0,0,1,18.9,9.135m3.254,24.4v1.627a1.632,1.632,0,0,1-1.627,1.627H17.269a1.632,1.632,0,0,1-1.627-1.627V33.539H22.15m-4.881-4.881h3.254V25.192a6.508,6.508,0,1,0-3.254,0Z" transform="translate(-1 -1)"/></svg>