<svg xmlns="http://www.w3.org/2000/svg" width="18.108" height="17.013" viewBox="0 0 18.108 17.013"><defs><style>.a,.b{fill:none;stroke:#006341;stroke-width:1.5px;}.a{stroke-linecap:round;}</style></defs><g transform="translate(-290.901 -406.833)"><g transform="translate(291.101 413.519)"><path class="a" d="M302.927,417a5.265,5.265,0,0,0-1.824-1.7" transform="translate(-292.531 -415.404)"/><path class="a" d="M293.066,415.3a6.226,6.226,0,0,0-2.928,5.411v3.256a1.161,1.161,0,0,0,1.089,1.221h8.711a1.161,1.161,0,0,0,1.089-1.221v-.18" transform="translate(-289.588 -415.608)"/></g><g transform="translate(295.724 415.541)"><path class="b" d="M303.251,417.863a2.546,2.546,0,0,0-1.759.7,2.549,2.549,0,0,0-1.761-.7,2.466,2.466,0,0,0-2.507,2.418c0,2.893,3.978,4.181,4.147,4.234a.414.414,0,0,0,.241,0c.169-.054,4.147-1.341,4.147-4.234A2.467,2.467,0,0,0,303.251,417.863Z" transform="translate(-293.224 -417.863)"/></g><g transform="translate(293.813 407.583)"><circle class="b" cx="3" cy="3" r="3" transform="translate(0.342 0)"/></g></g></svg>