<svg xmlns="http://www.w3.org/2000/svg" viewBox="0 0 15.746 15.482"><defs><style>.a{fill:#000f08;}</style></defs><g transform="translate(0 4.752)"><path class="a" d="M1765.09,395.766a1.79,1.79,0,0,1-1.788-1.787v-1.144a.266.266,0,0,1,.266-.266h3.043a.266.266,0,0,1,.266.266v1.144A1.789,1.789,0,0,1,1765.09,395.766Zm-1.256-2.666v.878a1.256,1.256,0,1,0,2.512,0V393.1Z" transform="translate(-1763.302 -392.569)"/></g><g transform="translate(3.043 4.752)"><path class="a" d="M1856.689,395.766a1.789,1.789,0,0,1-1.787-1.787v-1.144a.266.266,0,0,1,.266-.266h3.042a.266.266,0,0,1,.266.266v1.16c0,.008,0,.024,0,.031A1.8,1.8,0,0,1,1856.689,395.766Zm-1.256-2.666v.878a1.256,1.256,0,0,0,2.511.045c0-.015,0-.03,0-.045V393.1Z" transform="translate(-1854.902 -392.569)"/></g><g transform="translate(6.087 4.752)"><path class="a" d="M1948.287,395.766a1.8,1.8,0,0,1-1.786-1.741v-1.191a.266.266,0,0,1,.266-.266h3.042a.266.266,0,0,1,.266.266v1.144A1.789,1.789,0,0,1,1948.287,395.766Zm-1.255-2.666v.918a1.256,1.256,0,0,0,2.51-.04V393.1Z" transform="translate(-1946.501 -392.569)"/></g><g transform="translate(9.128 4.752)"><path class="a" d="M2039.851,395.766a1.789,1.789,0,0,1-1.787-1.787v-1.144a.266.266,0,0,1,.266-.266h3.043a.266.266,0,0,1,.266.266v1.144A1.789,1.789,0,0,1,2039.851,395.766ZM2038.6,393.1v.878a1.256,1.256,0,1,0,2.512,0V393.1Z" transform="translate(-2038.064 -392.569)"/></g><g transform="translate(12.172 4.752)"><path class="a" d="M2131.448,395.766a1.79,1.79,0,0,1-1.788-1.787v-1.144a.266.266,0,0,1,.266-.266h3.042a.266.266,0,0,1,.266.266V393.9c0,.018,0,.047,0,.078A1.79,1.79,0,0,1,2131.448,395.766Zm-1.256-2.666v.878a1.256,1.256,0,0,0,2.512,0c0-.022,0-.043,0-.065V393.1Z" transform="translate(-2129.661 -392.569)"/></g><path class="a" d="M1766.611,254.814h-3.043a.266.266,0,0,1-.247-.364l1.894-4.752a.266.266,0,0,1,.247-.167h2.286a.266.266,0,0,1,.259.328l-1.136,4.752A.266.266,0,0,1,1766.611,254.814Zm-2.651-.532h2.442l1.009-4.221h-1.769Z" transform="translate(-1763.302 -249.53)"/><g transform="translate(3.043)"><path class="a" d="M1858.209,254.814h-3.042a.266.266,0,0,1-.259-.328l1.136-4.752a.266.266,0,0,1,.259-.2h2.286a.266.266,0,0,1,.265.287l-.38,4.752A.266.266,0,0,1,1858.209,254.814Zm-2.705-.532h2.46l.337-4.221h-1.788Z" transform="translate(-1854.901 -249.53)"/></g><g transform="translate(6.085)"><path class="a" d="M1946.729,255.919a.266.266,0,0,1-.264-.24.656.656,0,0,1,0-.066v-1.066c0-.007,0-.014,0-.021l.38-4.752a.266.266,0,0,1,.265-.245h2.285a.266.266,0,0,1,.265.245l.379,4.752a.266.266,0,0,1-.265.287h-2.776v.84a.266.266,0,0,1-.253.265Zm.287-1.637h2.468l-.336-4.221h-1.794Z" transform="translate(-1946.462 -249.53)"/></g><g transform="translate(8.75)"><path class="a" d="M2030.351,254.814h-3.043a.266.266,0,0,1-.265-.245l-.379-4.752a.266.266,0,0,1,.265-.287h2.286a.266.266,0,0,1,.259.2l1.136,4.752a.266.266,0,0,1-.259.328Zm-2.8-.532h2.461L2029,250.062h-1.788Z" transform="translate(-2026.663 -249.53)"/></g><g transform="translate(11.036)"><path class="a" d="M2099.906,254.814h-3.042a.265.265,0,0,1-.258-.2l-1.136-4.752a.266.266,0,0,1,.259-.328h2.284a.265.265,0,0,1,.247.167l1.894,4.752a.266.266,0,0,1-.247.364Zm-2.832-.532h2.44l-1.682-4.221h-1.768Z" transform="translate(-2095.462 -249.53)"/></g><g transform="translate(6.085 5.818)"><path class="a" d="M1946.729,425.3a.266.266,0,0,1-.264-.24c0-.022,0-.044,0-.066v-.078a.266.266,0,0,1,.532,0v.015c0,.005,0,.019,0,.025v.078a.266.266,0,0,1-.253.265Z" transform="translate(-1946.462 -424.649)"/></g><g transform="translate(6.085 5.858)"><path class="a" d="M1946.729,426.458a.266.266,0,0,1-.264-.24c0-.022,0-.044,0-.066s0-.042,0-.064a.266.266,0,0,1,.53.026v.078a.266.266,0,0,1-.253.265Z" transform="translate(-1946.462 -425.848)"/></g><g transform="translate(1.522 7.684)"><path class="a" d="M1821.541,488.607h-12.172a.266.266,0,0,1-.266-.266v-7.533h.532v7.267h11.64v-7.267h.532v7.533A.266.266,0,0,1,1821.541,488.607Z" transform="translate(-1809.103 -480.809)"/></g><g transform="translate(2.763 9.482)"><path class="a" d="M1850.613,540.657h-.531v-5.2h-3.071v5.2h-.532v-5.469a.266.266,0,0,1,.266-.266h3.6a.266.266,0,0,1,.266.266Z" transform="translate(-1846.478 -534.922)"/></g><g transform="translate(5.409 12.032)"><rect class="a" width="0.532" height="0.899" transform="translate(0 0)"/></g><g transform="translate(8.012 8.498)"><path class="a" d="M2009.069,510.2h-4.345a.266.266,0,0,1-.266-.266v-4.345a.266.266,0,0,1,.266-.266h4.345a.266.266,0,0,1,.266.266v4.345A.266.266,0,0,1,2009.069,510.2Zm-4.08-.532h3.814v-3.814h-3.814Z" transform="translate(-2004.458 -505.319)"/></g></svg>