<svg xmlns="http://www.w3.org/2000/svg" viewBox="0 0 22.229 15.003"><defs><style>.a{fill:#cccdce;}</style></defs><g transform="translate(0 0)"><g transform="translate(1.916 0)"><g transform="translate(0)"><path class="a" d="M2551.952,328.026h-8.76a.357.357,0,0,1-.357-.357,1,1,0,1,0-2,0,.357.357,0,0,1-.357.357h-2.025a.358.358,0,0,1-.357-.367l.109-3.862.713.02-.1,3.495h1.339a1.716,1.716,0,0,1,3.357,0h8.1l.529-12.216h-12.786l-.085,2.352-.713-.026.1-2.7a.357.357,0,0,1,.357-.344h13.5a.356.356,0,0,1,.356.372l-.559,12.929A.356.356,0,0,1,2551.952,328.026Z" transform="translate(-2538.092 -314.383)"/><g transform="translate(13.86 4.222)"><path class="a" d="M2854.3,418.443h-1.646a.357.357,0,0,1-.357-.357,1,1,0,1,0-2,0,.357.357,0,0,1-.356.357h-1.173v-.714h.853a1.717,1.717,0,0,1,3.358,0h1.008l.507-4.429-2.58-3.565h-2.769v-.714h2.952a.357.357,0,0,1,.289.148l2.761,3.815a.376.376,0,0,1,.044.074.36.36,0,0,1,.027.194l-.558,4.875A.357.357,0,0,1,2854.3,418.443Z" transform="translate(-2848.767 -409.022)"/></g><g transform="translate(2.025 11.57)"><path class="a" d="M2585.208,577.168a1.716,1.716,0,1,1,1.717-1.716A1.718,1.718,0,0,1,2585.208,577.168Zm0-2.719a1,1,0,1,0,1,1A1,1,0,0,0,2585.208,574.449Z" transform="translate(-2583.493 -573.735)"/></g><g transform="translate(14.675 11.57)"><path class="a" d="M2868.76,577.168a1.716,1.716,0,1,1,1.716-1.716A1.718,1.718,0,0,1,2868.76,577.168Zm0-2.719a1,1,0,1,0,1,1A1,1,0,0,0,2868.76,574.449Z" transform="translate(-2867.044 -573.735)"/></g><g transform="translate(15.591 6.66)"><rect class="a" width="3.361" height="0.714"/></g></g><g transform="translate(3.741 8.26)"><rect class="a" width="10.273" height="0.714"/></g></g><g transform="translate(1.378 3.918)"><rect class="a" width="4.421" height="0.714" transform="translate(0 0)"/></g><g transform="translate(0 5.604)"><rect class="a" width="1.709" height="0.714" transform="translate(0 0)"/></g><g transform="translate(0.539 7.705)"><rect class="a" width="3.531" height="0.714" transform="translate(0 0)"/></g></g></svg>