<svg xmlns="http://www.w3.org/2000/svg" width="39.188" height="39.188" viewBox="0 0 39.188 39.188"><defs><style>.a,.c{fill:#fff;}.a{stroke:#e63422;stroke-miterlimit:10;stroke-width:1.188px;}.b{fill:#e63422;}</style></defs><g transform="translate(0.594 0.594)"><path class="a" d="M38,19A19,19,0,1,1,19,0,19,19,0,0,1,38,19Z"/><circle class="b" cx="15.438" cy="15.438" r="15.438" transform="translate(3.563 3.563)"/><path class="c" d="M1.6,21.1a1.6,1.6,0,0,1,0-3.191,1.573,1.573,0,0,1,1.153.488,1.624,1.624,0,0,1,.444,1.108A1.581,1.581,0,0,1,1.6,21.1ZM2.66,15.25H.532V0H2.66V15.249Z" transform="translate(17.417 7.575)"/></g></svg>