<svg xmlns="http://www.w3.org/2000/svg" viewBox="0 0 62.34 71.89"><defs><style>.cls-1{fill:#cccdce;}</style></defs><g id="Capa_2" data-name="Capa 2"><g id="Capa_1-2" data-name="Capa 1"><path id="Rectángulo_60" data-name="Rectángulo 60" class="cls-1" d="M5.14,0H57.2a5.14,5.14,0,0,1,5.14,5.14h0a5.14,5.14,0,0,1-5.14,5.14H5.14A5.14,5.14,0,0,1,0,5.14H0A5.14,5.14,0,0,1,5.14,0Z"/><path id="Trazado_163" data-name="Trazado 163" class="cls-1" d="M61.15,13h-60c-.65,0-.83.41-.4.89l24,27.38V71.08a.7.7,0,0,0,.58.8.76.76,0,0,0,.49-.11l10.61-4.93a2,2,0,0,0,1.07-1.68V41.29l24-27.37C62,13.44,61.81,13,61.15,13Z"/></g></g></svg>