<svg xmlns="http://www.w3.org/2000/svg" width="14.719" height="14.719" viewBox="0 0 14.719 14.719"><defs><style>.a{fill:#000f08;}</style></defs><g transform="translate(0 0)"><g transform="translate(0 0)"><path class="a" d="M14.261,1.791,12.927.457a1.565,1.565,0,0,0-2.21,0L.793,10.381a.439.439,0,0,0-.119.226l-.667,3.6a.431.431,0,0,0,.5.5l3.6-.667a.439.439,0,0,0,.226-.119L14.261,4A1.562,1.562,0,0,0,14.261,1.791ZM.969,13.749l.4-2.179,1.775,1.775Zm3.063-.739L1.708,10.686,10.195,2.2l2.324,2.325Zm9.618-9.619-.522.522L10.8,1.589l.522-.522a.7.7,0,0,1,.991,0L13.651,2.4A.7.7,0,0,1,13.651,3.392Z" transform="translate(0 0)"/></g></g></svg>