<svg xmlns="http://www.w3.org/2000/svg" viewBox="0 0 52.66 72.02"><defs><style>.cls-1{fill:#cccdce;}</style></defs><g id="Capa_2" data-name="Capa 2"><g id="Capa_1-2" data-name="Capa 1"><path id="Trazado_160" data-name="Trazado 160" class="cls-1" d="M10.46,42.58V1.29A1.29,1.29,0,0,0,9.17,0H6.24A1.29,1.29,0,0,0,5,1.29H5V42.58A7.7,7.7,0,0,0,5,57V70.73A1.29,1.29,0,0,0,6.24,72H9.17a1.29,1.29,0,0,0,1.29-1.29h0V57a7.7,7.7,0,0,0,0-14.38Z"/><path id="Trazado_161" data-name="Trazado 161" class="cls-1" d="M29.09,14.63V1.29A1.29,1.29,0,0,0,27.8,0H24.85a1.29,1.29,0,0,0-1.29,1.29h0V14.63a7.69,7.69,0,0,0,0,14.37V70.73A1.29,1.29,0,0,0,24.85,72h2.93a1.29,1.29,0,0,0,1.29-1.29h0V29a7.69,7.69,0,0,0,0-14.37Z"/><path id="Trazado_162" data-name="Trazado 162" class="cls-1" d="M47.71,33.55V1.29A1.29,1.29,0,0,0,46.42,0H43.49a1.28,1.28,0,0,0-1.28,1.29h0V33.55a7.7,7.7,0,0,0,0,14.38v22.8A1.28,1.28,0,0,0,43.49,72h2.93a1.3,1.3,0,0,0,1.29-1.29V47.93a7.7,7.7,0,0,0,0-14.38Z"/></g></g></svg>