<svg xmlns="http://www.w3.org/2000/svg" width="87.009" height="49.72" viewBox="0 0 87.009 49.72"><defs><style>.a{fill:#af272f;}.b{fill:#006341;}</style></defs><g transform="translate(-0.001 -1.805)"><g transform="translate(0.001 1.805)"><g transform="translate(0 0)"><path class="a" d="M113.322,625.338a14.206,14.206,0,1,1-14.208-14.207,14.2,14.2,0,0,1,14.208,14.207" transform="translate(-55.612 -593.66)"/><path class="b" d="M101.133,583.883a104.124,104.124,0,0,0-19.585,5.428C64.293,596.6,52.14,609.277,53.175,620c.678,7,4.424,11.623,13.561,13.277-16.432,1.711-26.507-3.3-27.463-13.193-1.148-11.908,14.838-26.441,36.053-33.087a74.532,74.532,0,0,1,9.321-2.074,109.757,109.757,0,0,1,16.487-1.035" transform="translate(-39.214 -583.883)"/><path class="b" d="M78.347,583.883a104.025,104.025,0,0,1,19.588,5.428c17.251,7.29,29.4,19.966,28.371,30.684-.675,7-4.427,11.623-13.56,13.277,16.429,1.711,26.514-3.3,27.462-13.193,1.15-11.908-14.84-26.441-36.061-33.087a74.19,74.19,0,0,0-9.318-2.074,109.71,109.71,0,0,0-16.482-1.035" transform="translate(-53.258 -583.883)"/></g></g></g></svg>