<svg xmlns="http://www.w3.org/2000/svg" width="174.262" height="33.329" viewBox="0 0 174.262 33.329"><defs><style>.a{fill:#cd3428;}</style></defs><g transform="translate(0 -0.01)"><path class="a" d="M56.585,136.187,51.3,137.21a5.228,5.228,0,0,1-1.382,4.526c-2.24,2.4-4.585,2.24-6.438,1.262a7.521,7.521,0,0,1-2.987-3.816c3.928-3.824,3.443-7.879,1.285-11.62a9.8,9.8,0,0,0-6.55-4.481,18.528,18.528,0,0,0-6.512,3.525l3.54,4.063a5.228,5.228,0,0,1,4.571-1.053,5.016,5.016,0,0,1,4.309,4.944,7.61,7.61,0,0,1-1.792,4.481c-5.28-1.494-8.551.956-10.717,4.7a9.806,9.806,0,0,0-.6,7.909,18.528,18.528,0,0,0,6.3,3.876l1.755-5.093a5.228,5.228,0,0,1-3.226-3.458,4.993,4.993,0,0,1,2.128-6.206,7.613,7.613,0,0,1,4.795-.695c1.344,5.332,5.1,6.945,9.425,6.945a9.806,9.806,0,0,0,7.154-3.428,18.521,18.521,0,0,0,.2-7.4" transform="translate(-21.141 -122.48)"/><path class="a" d="M53.366,137.951a6.214,6.214,0,0,0,4.279-2.24c2.472-3.152,1.494-5.549.926-6.721a7.767,7.767,0,0,0-2.442-2.4l-.373-1.15-.821-2.584-3.144,1.845,1.09,3.615c6.348,3.794.515,9.649.515,9.649" transform="translate(-27.302 -122.422)"/><path class="a" d="M32.853,136.624a6.206,6.206,0,0,0-4.1-2.577c-3.966-.56-5.571,1.456-6.273,2.547a7.737,7.737,0,0,0-.859,3.316l-.807.9L19,142.845l3.166,1.8L24.75,141.9c.112-7.393,8.1-5.265,8.1-5.265" transform="translate(-19 -125.232)"/><path class="a" d="M49.291,158.726c-6.46,3.6-8.611-4.376-8.611-4.376a6.206,6.206,0,0,0-.187,4.839c1.494,3.734,4.048,4.093,5.34,4.16a7.752,7.752,0,0,0,3.3-.911l1.187.246,2.659.553v-3.644Z" transform="translate(-24.34 -130.397)"/><path class="a" d="M108.607,124.74l5.078-2.45v26.049q0,4.018,2.4,4.795a4.175,4.175,0,0,1-4.025,2.24q-3.458,0-3.458-4.795V124.74Z" transform="translate(-41.685 -122.28)"/><path class="a" d="M125.553,145.671H136.24q-.53-4.772-5.28-4.772-4.346,0-5.407,4.772m15.369,3.824H125.367a5.511,5.511,0,0,0,1.785,4.04,6.482,6.482,0,0,0,4.429,1.441,5.922,5.922,0,0,0,1.957-.164c.881-.2,1.949-.747,3.144-.284a3.241,3.241,0,0,1,1.456,1.382,8.319,8.319,0,0,1,.695,1.135q-2.681,2.173-8.006,2.173a10.59,10.59,0,0,1-7.871-2.913q-2.89-2.913-2.9-8.14a11.284,11.284,0,0,1,3.181-8.327,11.15,11.15,0,0,1,15.228-.366,9.664,9.664,0,0,1,2.868,7.192,14.062,14.062,0,0,1-.426,2.823" transform="translate(-44.584 -125.915)"/><path class="a" d="M80.926,145.668H91.613q-.53-4.772-5.28-4.772-4.346,0-5.407,4.772m15.362,3.816H80.739a5.519,5.519,0,0,0,1.785,4.04,6.482,6.482,0,0,0,4.429,1.441,5.915,5.915,0,0,0,1.957-.164c.881-.2,1.949-.747,3.144-.284a3.241,3.241,0,0,1,1.494,1.382,8.32,8.32,0,0,1,.695,1.135q-2.681,2.173-8.006,2.173a10.59,10.59,0,0,1-7.871-2.913q-2.89-2.913-2.9-8.14a11.284,11.284,0,0,1,3.181-8.327,11.15,11.15,0,0,1,15.228-.366,9.709,9.709,0,0,1,2.86,7.192,14.189,14.189,0,0,1-.426,2.823" transform="translate(-33.294 -125.912)"/><path class="a" d="M168.093,155.283a2.151,2.151,0,0,1-1.74-.919l-5.8-8.962-2.435,2.577v7.274H153V124.865l5.078-2.345v19.357l7.252-8.349h6.116l-7.356,8.215,8.857,13.51h-4.892Z" transform="translate(-52.927 -122.338)"/><path class="a" d="M184.914,139.161H178.76l3.637-4.085h2.517v-4.429l5.078-1.867v6.3h5.975v4.085h-5.975v9.529a5.624,5.624,0,0,0,.747,3.3,2.987,2.987,0,0,0,2.562.963,6.3,6.3,0,0,0,3.413-.993v4.675a16.168,16.168,0,0,1-5.041.612,6.572,6.572,0,0,1-5-1.837,7.289,7.289,0,0,1-1.748-5.228V139.161Z" transform="translate(-59.449 -123.923)"/><path class="a" d="M221.191,138.535a5.617,5.617,0,0,0-.269,3.525,6.176,6.176,0,0,0-3.57-1.128,5,5,0,0,0-3.51,1.658,5.833,5.833,0,0,0-1.374,3.921V158.9H207.39V137.146h5.078v2.009a7.1,7.1,0,0,1,5.549-2.487,9.649,9.649,0,0,1,4.048.747,3.346,3.346,0,0,0-.881,1.113" transform="translate(-66.697 -125.919)"/><path class="a" d="M238.8,150.612q0,4.571-4.571,4.571-3.4,0-3.4-2.928,0-3.943,6.019-3.943a10.9,10.9,0,0,1,1.949.261V150.6Zm5.056,1.546v-4.653q0-6.318-2.315-8.581c-1.546-1.494-3.144-2.285-6.46-2.285a14.547,14.547,0,0,0-3.816.426c-3.674,1.068-2.166,4.8-2.166,4.8h0l.127-.06.7-.291a11.748,11.748,0,0,1,3.966-.612q4.854,0,4.854,3.839a8.963,8.963,0,0,0-2.113-.306q-5.228,0-8.058,2.136a6.983,6.983,0,0,0-2.83,5.915,6.273,6.273,0,0,0,2.009,4.989,8.11,8.11,0,0,0,5.526,1.755,9.163,9.163,0,0,0,3.585-.747,4.907,4.907,0,0,0,2.412-1.86,4.115,4.115,0,0,0,1.18,1.77,2.987,2.987,0,0,0,1.972.814,3.966,3.966,0,0,0,1.77-.254,2.875,2.875,0,0,0,1.4-1.352q-1.748-1.12-1.748-5.467" transform="translate(-71.342 -125.912)"/></g></svg>