<svg xmlns:xlink="http://www.w3.org/1999/xlink" xmlns="http://www.w3.org/2000/svg" width="500" height="50" viewBox="0 0 240 24" class="Item_creditIcon__3Ue3e"><path fill="#E1251B" fill-rule="evenodd" d="M232.071 7.617c1.608 0 3 .626 3.965 1.566 1.026.9 1.56 2.758 1.604 5.391l.003.348v3.13l.002.279c.036 1.815.429 2.87 1.257 3.398l.134.08-.099.172c-.175.277-.404.5-.689.67l-.177.097-.16.052c-.228.076-.465.126-.705.148l-.206.009h-.214l-.178-.008c-.4-.031-.783-.175-1.1-.414l-.115-.1-.151-.118c-.274-.23-.488-.518-.626-.843l-.08-.187-.132.182c-.341.46-.816.808-1.364 1.001l-.219.07-.286.112c-.595.222-1.22.357-1.856.4l-.322.009h-.428c-1.294 0-2.403-.45-3.326-1.099l-.21-.153-.167-.17c-.701-.743-1.152-1.642-1.217-2.695l-.009-.266v-.521c0-1.38.669-2.76 1.736-3.612l.193-.145.284-.183c1.255-.764 2.81-1.211 4.387-1.27l.364-.008h.643l.268.008c.416.03.828.098 1.232.2 0-1.71-1.096-2.547-3.192-2.605l-.236-.003h-.215c-.735 0-1.469.154-2.136.329l-.328.089-.536.208h-.107s-1.012-2.367 1.294-3.17l.206-.065h-.107c.702-.172 1.42-.274 2.143-.304l.428-.009h.75zm-51.382 0c.094.005.2.03.382.21 1.815 0 3.536.646 4.804 1.68l.232.197.222.226c1.078 1.148 1.73 2.604 1.806 4.158l.008.312v.209l-.007.273c-.021.464-.098.959-.229 1.37l-.086.235H177l.009.222c.063.875.498 1.67 1.106 2.318l.17.173.194.128c.653.418 1.45.746 2.327.803l.265.008h.536c.357 0 .64 0 .91-.06l.162-.044.184-.084c.368-.153.75-.23 1.208-.23.172 0 .412 0 .611.054l.14.051.176.096c.285.17.514.393.69.671l.098.172.107.105c.14.141.273.29.366.477l.062.149-.303.182c-1.324.773-2.826 1.21-4.37 1.271l-.362.008h-1.072c-1.821 0-3.546-.652-4.816-1.78l-.22-.203-.208-.214c-1.09-1.163-1.747-2.726-1.82-4.466l-.007-.329v-.835c-.007-1.89.72-3.712 2.035-5.102l.215-.22.197-.199c1.2-1.17 2.824-1.906 4.716-1.984l.337-.008h.046zm-22.296 0c.1.002.226.023.607.21 1.815 0 3.44.646 4.697 1.68l.232.197.221.225c1.078 1.137 1.73 2.518 1.807 4.142l.007.329v.209l-.053.32c-.072.435-.143.893-.215 1.281l-.053.277H154.82l.034.259c.133.845.484 1.614 1.054 2.248l.198.206.193.128c.654.418 1.45.746 2.327.803l.266.008h.536c.356 0 .64 0 .91-.06l.161-.044.184-.084c.369-.153.75-.23 1.209-.23.171 0 .411 0 .61.054l.14.051.177.096c.285.17.514.393.689.671l.098.172.107.105c.14.141.274.29.367.477l.062.149-.303.182c-1.325.773-2.827 1.21-4.37 1.271l-.363.008h-1.071c-1.922 0-3.654-.652-4.923-1.78l-.22-.203-.21-.214c-1.089-1.163-1.745-2.726-1.82-4.466l-.006-.329v-.835c-.007-1.89.72-3.712 2.035-5.102l.215-.22.197-.199c1.2-1.17 2.825-1.906 4.717-1.984l.336-.008h.037-.001zm51.071-4.278v4.278h4.179v2.713h-4.179v7.096c0 .626.215 1.357.536 1.878.29.376.839.667 1.258.721l.135.01h.214l.285-.008c.664-.036 1.316-.198 1.85-.487l.222-.131v3.13h.107c-.937.274-1.875.388-2.812.412l-.402.006h-.643c-1.094 0-2.096-.45-2.92-1.1l-.187-.153-.167-.219c-.593-.808-.948-1.698-1.004-2.73l-.007-.285v-8.035h-4.286l2.571-2.818h1.822V4.591l3.428-1.252zM129.857.104l.302.072c1.754.45 3.26 1.547 4.198 3.059 1.46 2.538 1.803 5.274-.746 7.919l-.218.22.113.259c.403.862 1.018 1.614 1.793 2.187l.237.163.205.112c.491.25 1.054.41 1.616.41 1.1 0 2.014-.456 2.653-1.194l.133-.163.144-.15c.587-.653.915-1.488.927-2.355 0-.156-.06-.313-.09-.47l-.017-.156 3.643-.626-.001-.1c.108.726.215 1.561.215 2.396 0 .894-.078 1.711-.235 2.453l-.086.364-.192.226c-1.178 1.32-2.915 2.076-4.844 2.174-2.92 0-5.537-1.088-6.563-4.613l-.08-.291-.193-.051c-.257-.053-.514-.053-.771-.053-.857 0-1.545.247-2.214.521l-.25.105-.168.116c-.882.645-1.547 1.732-1.547 2.91 0 .447 0 .818.135 1.177l.08.18.09.225c.395.92 1.128 1.664 2.056 2.086l.21.088-1.285 3.548H129c-1.472-.58-2.836-1.393-4.037-2.405l-.356-.308-.11-.274c-.236-.641-.318-1.291-.318-2.022 0-1.147.321-2.295.857-3.234 1.46-2.642 3.734-4.294 7.313-3.417l.294.078.18-.213c.58-.726.938-1.595 1.072-2.609l.034-.309-.006-.196c-.087-1.617-1.245-2.936-2.798-3.218l-.196-.03-.193-.05c-.257-.054-.515-.054-.772-.054-.779 0-1.559.26-2.177.698l-.18.137-2.464-2.817.323-.26c1.296-1.026 2.789-1.79 4.391-2.245zm1.393 16.384c.01.038 1.464 5.326 5.864 3.151l.243-.126 2.679.835v2.504l-1.929-.417-.857-.209-.25.104c-.585.24-1.176.46-1.825.512l-.282.01-.213-.019c-1.554-.174-2.902-1.207-3.465-2.697l-.072-.206-.099-.26c-.146-.42-.221-.861-.223-1.305 0-.64.164-1.198.349-1.678l.08-.199zM192.536 0v13.565l5.357-5.948h4.286l-5.358 5.844 6.322 9.391h-3.429l-.157-.01c-.415-.054-.787-.278-1.021-.616-.21-.203-4.08-5.954-4.279-6.25l-.007-.01-1.714 1.773v5.113h-3.429V1.565L192.536 0zm-21.429 0v18.157c.102 1.689.496 2.716 1.552 3.17l.162.064-.087.155c-.443.705-1.348 1.231-2.283 1.299l-.201.007h-.214c-1.547 0-2.3-.967-2.354-2.996l-.003-.239V1.67L171.107 0zm48.107 7.617v1.67l.157-.18c.81-.876 2.018-1.419 3.33-1.483l.263-.007h.215c.857 0 1.714.165 2.421.422l.257.1-.13.09c-.25.18-.42.372-.513.64-.214.418-.321.94-.214 1.566 0 .25 0 .434.055.657l.052.178-.2-.123c-.602-.347-1.28-.552-1.978-.598l-.286-.01-.26.037c-.752.126-1.452.453-2.023.945l-.181.166-.155.163c-.49.563-.758 1.325-.803 2.108l-.007.233v8.661h-3.428V7.617h3.428zM104.036 5.113c4.81-.011 8.752 3.712 8.888 8.395l.005.266c0 4.8-4.072 8.66-8.893 8.66h-.643c-4.81.012-8.753-3.712-8.889-8.394l-.004-.266c0-4.8 3.964-8.661 8.893-8.661h.643zM10.5 5.217c2.683 0 5.068 1.258 6.579 3.214l.171.23-3.536 2.609c-.806-1.08-1.993-1.791-3.469-1.958l-.28-.025c-2.25.104-4.072 1.878-4.072 4.07v.626c0 2.122 1.709 3.951 3.861 4.064l.21.005c1.436 0 2.785-.67 3.627-1.804l.123-.178 3.536 2.504c-1.607 2.296-4.179 3.756-7.071 3.756h-.643c-4.715 0-8.572-3.756-8.572-8.347.107-.21.107-.313.107-.313 0-4.696 3.965-8.453 8.786-8.453h.643zm40.179.21V9.39h-9v2.505h8.142v3.652H41.68v2.609h9.107v3.965H36.964V5.426H50.68zm-22.5 0c1.815 0 3.44.646 4.697 1.592l.231.181c.964.94 1.5 2.191 1.5 3.652v.522c0 2.11-1.29 3.93-3.204 4.807l-.224.097 4.071 5.74h-5.464l-3.429-5.01h-2.036v5.01h-4.714L19.5 5.425h8.679zm48.428 0v16.59h-4.714V5.427h4.714zm17.036 0V9.39H88.5v12.522h-4.714l.107-12.417H78.75v-4.07h14.893zm-33.857 0c5.995 0 9.514 3.318 9.64 7.884l.003.254c0 4.8-3.536 8.348-9.643 8.348h-6.429V5.426h6.429zM232.82 15.651c-2.785 0-4.178.835-4.178 2.609 0 1.297.686 1.927 2.152 1.98l.205.002h.429c1.442 0 2.686-1.158 2.78-2.546l.005-.167v-1.67c-.428-.103-.857-.208-1.393-.208zm-129.214-6.26c-2.357 0-4.286 1.878-4.286 4.173v.313c0 2.327 1.814 4.164 4.17 4.273l.223.006c2.357 0 4.286-1.879 4.286-4.174v-.313c0-2.327-1.814-4.164-4.17-4.273l-.223-.006zM59.893 9.6h-1.929v8.452l1.929-.104c2.7 0 4.596-1.471 4.709-3.94l.005-.234c0-2.609-1.821-4.174-4.714-4.174zm98.786.835h-.322c-1.96 0-3.125.967-3.688 2.996l-.062.239H162l-.005-.183c-.109-1.709-1.559-3.043-3.316-3.052zm22.285 0h-.321c-1.96 0-3.125.967-3.688 2.996l-.062.239h7.393l-.006-.183c-.108-1.709-1.558-3.043-3.316-3.052zM27.321 9.39h-3.107v3.966l3.107.104c1.608 0 2.572-.73 2.572-1.983v-.104c0-1.357-.964-1.983-2.572-1.983zM125.68 5.74c.257 0 .514 0 .771.053l.193.051.25.052c1.08.248 2.046.85 2.643 1.722 0 0-5.477-1.408-5.674 3.484l-.005.273-1.821 1.878-2.25-1.252 1.285-1.46.536-.627.045-.313c.1-.623.262-1.231.482-1.738l.116-.245.112-.187c.674-1.04 1.9-1.69 3.317-1.69zM139.393 0l.536 1.774.214.835.242.143c.546.344.972.757 1.325 1.29l.147.236.116.2c.256.48.42 1.039.42 1.679 0 1.059-.364 1.94-1.012 2.645l-.167.172-.134.164c-.668.753-1.598 1.242-2.612 1.373l-.245.026c.26-.172 3.89-4.02-.007-6.642L138 3.757l-.857-2.505L139.393 0zM44.679.522l4.392 1.356-3.642 2.505H42L44.679.522z"></path></svg>