<svg xmlns="http://www.w3.org/2000/svg" width="37.153" height="37.073" viewBox="0 0 37.153 37.073"><defs><style>.a{fill:#000f08;stroke:#717171;stroke-width:0.25px;}.a,.b{stroke-miterlimit:10;}.b{fill:none;stroke:#000f08;stroke-linecap:square;stroke-width:2px;}</style></defs><g transform="translate(-1069.875 -3673.875)"><path class="a" d="M35.61,36.823a1.2,1.2,0,0,1-.858-.356L24.321,26.019A14.768,14.768,0,1,1,26.033,24.3L36.467,34.75a1.216,1.216,0,0,1,0,1.716A1.2,1.2,0,0,1,35.61,36.823ZM14.756,2.428a12.35,12.35,0,1,0,12.332,12.35A12.355,12.355,0,0,0,14.756,2.428Z" transform="translate(1070 3674)"/><g transform="translate(1078.439 3683.206)"><path class="b" d="M4.1,4.1,0,8.2,4.1,4.1,0,0,4.1,4.1,8.2,0,4.1,4.1,8.2,8.2Z" transform="translate(0 5.798) rotate(-45)"/></g></g></svg>