<svg xmlns="http://www.w3.org/2000/svg" width="37.153" height="37.073" viewBox="0 0 37.153 37.073"><defs><style>.a{fill:#000f08;stroke-width:0.25px;}.a,.b{stroke:#000f08;stroke-miterlimit:10;}.b{fill:none;stroke-linecap:square;stroke-width:2px;}</style></defs><g transform="translate(0.125 0.125)"><path class="a" d="M35.61,36.823a1.2,1.2,0,0,1-.858-.356L24.321,26.019A14.768,14.768,0,1,1,26.033,24.3L36.467,34.75a1.216,1.216,0,0,1,0,1.716A1.2,1.2,0,0,1,35.61,36.823ZM14.756,2.428a12.35,12.35,0,1,0,12.332,12.35A12.355,12.355,0,0,0,14.756,2.428Z"/><g transform="translate(8.439 9.205)"><path class="b" d="M0,0,8.2,8.2" transform="translate(0 5.798) rotate(-45)"/></g></g></svg>