<svg xmlns="http://www.w3.org/2000/svg" width="25.971" height="20.325" viewBox="0 0 25.971 20.325"><defs><style>.a{fill:#000f08;}</style></defs><path class="a" d="M-618.865-141.083h9.283a.565.565,0,0,0,.565-.565v-19.2a.565.565,0,0,0-.565-.565h-24.842a.564.564,0,0,0-.565.565v19.2a.564.564,0,0,0,.565.565h15.559Zm8.719-1.928-8.673-8.673,8.673-7.885Zm-11.857-7.3-10.961-9.964h21.922Zm-3.184-1.368-8.673,8.673v-16.557Zm.836.76,1.968,1.789a.565.565,0,0,0,.38.147.565.565,0,0,0,.38-.147l1.968-1.789,8.71,8.711h-22.116Zm-.475,9.84h4.3" transform="translate(634.989 161.408)"/></svg>