<svg xmlns="http://www.w3.org/2000/svg" viewBox="0 0 15.838 12.862"><defs><style>.a{fill:#e11821;}</style></defs><g transform="translate(0 -0.544)"><g transform="translate(0 0.544)"><path class="a" d="M15.806,53.915,14.07,50.939a.232.232,0,0,0-.1-.094L8.015,48.117a.232.232,0,0,0-.193,0L1.871,50.845a.232.232,0,0,0-.1.094L.031,53.915a.232.232,0,0,0,.1.328L6.086,56.97a.232.232,0,0,0,.3-.094l1.3-2.234v5.723L2.2,57.85V55.907a.232.232,0,1,0-.464,0V58a.232.232,0,0,0,.135.211l5.951,2.728a.232.232,0,0,0,.193,0l5.951-2.728A.232.232,0,0,0,14.1,58V55.907a.232.232,0,0,0-.464,0V57.85L8.15,60.365V54.642l1.3,2.234a.232.232,0,0,0,.3.094L15.7,54.242a.232.232,0,0,0,.1-.328ZM6.088,56.461.561,53.927l1.5-2.573,5.527,2.533Zm1.83-2.932L2.524,51.056l5.394-2.472,5.394,2.472Zm1.83,2.932-1.5-2.573,5.527-2.533,1.5,2.573Z" transform="translate(0 -48.096)"/></g></g></svg>