<svg xmlns="http://www.w3.org/2000/svg" width="29.269" height="23.553" viewBox="0 0 29.269 23.553"><defs><style>.a{fill:#006341;}.a,.b{stroke:#006341;}.a,.b,.c,.d{stroke-linecap:round;stroke-width:1.4px;}.a,.b,.c{stroke-linejoin:round;}.b,.c,.d{fill:none;}.c,.d{stroke:#fff;}</style></defs><g transform="translate(0.7 0.7)"><path class="a" d="M334.479,267.119h27.869v-15.2H334.479v15.2Z" transform="translate(-334.479 -251.923)"/><line class="b" x2="27.661" transform="translate(0.104 18.735)"/><line class="b" x2="27.661" transform="translate(0.104 22.153)"/><g transform="translate(11.93 2.662)"><path class="c" d="M5641.861,243.045a3.738,3.738,0,0,0,1.833.344c2.249-.076,2.36-3.13-.213-3.145-2.688-.015-2.6-3.059-.165-3.142a3.382,3.382,0,0,1,1.718.349" transform="translate(-5641.478 -235.381)"/><path class="d" d="M5473.148,203.968v1.6" transform="translate(-5470.973 -203.968)"/><path class="d" d="M5473.148,203.968v.687" transform="translate(-5470.973 -195.15)"/></g></g></svg>