<svg xmlns="http://www.w3.org/2000/svg" width="9.954" height="9.341" viewBox="0 0 9.954 9.341"><defs><style>.a{fill:#da291c;}</style></defs><path class="a" d="M5.087.565a.3.3,0,0,1,.541,0L6.893,3.209a.3.3,0,0,0,.234.168l2.944.363a.3.3,0,0,1,.166.518L8.081,6.243a.3.3,0,0,0-.091.278l.557,2.855A.3.3,0,0,1,8.11,9.7L5.5,8.288a.3.3,0,0,0-.285,0L2.6,9.7a.3.3,0,0,1-.437-.321L2.72,6.524a.3.3,0,0,0-.091-.278L.477,4.259A.3.3,0,0,1,.643,3.74l2.944-.363a.3.3,0,0,0,.234-.168Z" transform="translate(-0.38 -0.395)"/></svg>