<svg xmlns="http://www.w3.org/2000/svg" width="27.981" height="26.198" viewBox="0 0 27.981 26.198"><defs><style>.a{fill:#000f08;}</style></defs><g transform="translate(0 -16.314)"><g transform="translate(0 16.314)"><path class="a" d="M26.232,23.275H20.7a6.8,6.8,0,0,0,.976-.782,3.659,3.659,0,0,0,0-5.145,3.7,3.7,0,0,0-5.129,0c-.757.761-2.77,3.858-2.492,5.927h-.126c.276-2.069-1.735-5.166-2.492-5.927a3.7,3.7,0,0,0-5.129,0,3.66,3.66,0,0,0,0,5.145,6.921,6.921,0,0,0,.978.782H1.749A1.752,1.752,0,0,0,0,25.024V29.4a.875.875,0,0,0,.874.874h.874V40.763A1.752,1.752,0,0,0,3.5,42.512H24.484a1.752,1.752,0,0,0,1.749-1.749V30.27h.874a.875.875,0,0,0,.874-.874V25.024A1.752,1.752,0,0,0,26.232,23.275ZM7.546,18.581a1.864,1.864,0,0,1,2.649,0c1.179,1.186,2.35,4.215,1.943,4.636a.577.577,0,0,1-.324.058A8.6,8.6,0,0,1,7.546,21.26,1.907,1.907,0,0,1,7.546,18.581Zm5.57,22.182H3.5V30.27h9.619Zm0-12.242H1.749v-3.5H13.116Zm4.669-9.94a1.884,1.884,0,0,1,2.649,2.679,8.6,8.6,0,0,1-4.269,2.015.574.574,0,0,1-.325-.058C15.435,22.8,16.607,19.767,17.786,18.581Zm6.7,22.182H14.865V30.27h9.619Zm1.749-12.242H14.865v-3.5H26.232Z" transform="translate(0 -16.314)"/></g></g></svg>