<svg xmlns="http://www.w3.org/2000/svg" width="15.052" height="17.886" viewBox="0 0 15.052 17.886"><defs><style>.a{fill:#53565a;}</style></defs><path class="a" d="M16.18,14.7l1.342,1.313a7.47,7.47,0,0,0,1.531-3.676H17.143A5.748,5.748,0,0,1,16.18,14.7M12.5,16.968v1.909a7.487,7.487,0,0,0,3.685-1.521L14.828,16a5.467,5.467,0,0,1-2.324.973m6.548-6.52a7.47,7.47,0,0,0-1.531-3.676L16.18,8.115a5.486,5.486,0,0,1,.964,2.334M14.913,5.3,10.614,1V3.9a7.551,7.551,0,0,0,0,14.986V16.978a5.662,5.662,0,0,1,0-11.168V9.5Z" transform="translate(-4 -1)"/></svg>