<svg xmlns="http://www.w3.org/2000/svg" width="15.052" height="17.886" viewBox="0 0 15.052 17.886"><defs><style>.a{fill:#53565a;}</style></defs><path class="a" d="M12.508,3.9V1l-4.3,4.3,4.3,4.2V5.809a5.662,5.662,0,0,1,0,11.168v1.909a7.551,7.551,0,0,0,0-14.986M6.933,17.365a7.487,7.487,0,0,0,3.685,1.521V16.968A5.588,5.588,0,0,1,8.294,16l-1.361,1.37m-.954-5.027H4.07A7.47,7.47,0,0,0,5.6,16.014l1.332-1.342a5.665,5.665,0,0,1-.954-2.334m.964-4.224L5.61,6.773a7.485,7.485,0,0,0-1.54,3.676H5.979A5.607,5.607,0,0,1,6.942,8.115Z" transform="translate(-4.07 -1)"/></svg>