<svg id="svg" version="1.1" xmlns="http://www.w3.org/2000/svg" xmlns:xlink="http://www.w3.org/1999/xlink" width="400" height="210.5263157894737" viewBox="0, 0, 400,210.5263157894737"><g id="svgg"><path id="path0" d="M54.575 61.194 C 54.167 61.357,53.684 62.426,53.684 63.164 C 53.684 64.582,51.683 65.608,50.001 65.053 C 49.167 64.778,48.632 63.964,48.632 62.972 C 48.632 61.790,48.321 61.320,47.610 61.424 C 46.518 61.584,46.328 63.324,46.710 69.670 L 46.842 71.866 47.461 72.031 C 48.444 72.292,48.632 71.966,48.632 69.998 C 48.632 67.556,48.887 67.263,51.017 67.263 C 53.283 67.263,53.684 67.662,53.684 69.916 C 53.684 72.192,54.705 73.020,56.053 71.837 C 56.497 71.447,56.610 63.343,56.188 62.132 C 55.885 61.263,55.279 60.910,54.575 61.194 M14.728 62.024 C 14.605 62.346,14.542 64.499,14.575 67.212 C 14.638 72.370,14.691 72.558,15.911 71.973 L 16.526 71.679 16.583 67.157 C 16.648 62.056,16.541 61.474,15.548 61.474 C 15.083 61.474,14.887 61.605,14.728 62.024 M19.676 62.958 C 18.877 64.048,18.751 64.889,19.277 65.640 C 19.498 65.955,19.671 66.955,19.801 68.671 C 20.036 71.769,20.080 71.922,20.847 72.318 C 21.802 72.812,22.580 72.713,23.253 72.010 L 23.848 71.389 23.081 70.936 C 21.976 70.284,21.682 66.788,22.613 65.368 C 23.895 63.410,21.055 61.079,19.676 62.958 M60.570 62.883 C 60.478 63.036,60.318 71.987,60.391 72.909 C 60.453 73.699,61.543 73.262,61.870 72.316 C 62.361 70.892,62.415 65.850,61.957 64.211 C 61.592 62.906,60.933 62.275,60.570 62.883 M42.081 63.538 C 41.559 63.598,40.526 67.019,40.606 68.421 C 40.729 70.560,41.644 73.935,42.177 74.211 C 43.005 74.641,43.106 74.207,42.670 72.088 C 42.242 70.006,42.234 68.927,42.636 67.263 C 43.234 64.786,43.032 63.427,42.081 63.538 M7.561 63.771 C 5.847 64.320,5.446 65.242,6.128 67.065 L 6.563 68.227 5.968 68.692 C 4.579 69.779,4.381 70.260,4.832 71.447 C 5.336 72.772,11.352 73.102,12.125 71.847 C 12.363 71.462,12.182 67.203,11.897 66.490 C 11.218 64.785,8.910 63.338,7.561 63.771 M27.474 64.719 C 24.503 66.331,23.990 67.661,25.371 70.172 C 26.554 72.324,26.848 72.514,29.145 72.598 C 32.868 72.735,34.452 70.814,33.676 67.100 C 33.031 64.010,30.541 63.054,27.474 64.719 M8.421 65.891 C 8.421 66.153,7.466 66.401,7.166 66.216 C 7.042 66.139,6.995 65.988,7.062 65.880 C 7.223 65.619,8.421 65.628,8.421 65.891 M30.811 66.711 C 31.739 67.521,31.920 69.502,31.151 70.429 C 30.548 71.155,28.214 70.847,27.823 69.989 C 26.774 67.688,29.059 65.181,30.811 66.711 M8.953 69.268 C 9.886 70.042,8.855 71.150,7.608 70.715 C 6.924 70.477,6.459 69.144,6.953 68.838 C 7.261 68.648,8.537 68.923,8.953 69.268 M14.240 84.014 C 13.878 84.299,13.686 84.339,13.514 84.166 C 13.081 83.734,11.725 83.939,11.227 84.512 C 10.098 85.811,9.976 91.289,11.028 93.508 C 11.682 94.890,12.188 95.158,14.146 95.158 C 15.482 95.158,15.338 95.248,17.085 93.319 C 18.867 91.352,18.630 85.748,16.713 84.492 C 15.554 83.732,14.787 83.584,14.240 84.014 M29.134 84.008 C 28.523 84.310,28.157 84.682,27.894 85.265 C 27.689 85.720,27.343 86.254,27.126 86.450 C 26.908 86.647,26.672 87.174,26.600 87.622 C 26.475 88.406,26.367 88.534,24.888 89.641 C 23.533 90.655,24.296 92.442,26.196 92.702 C 26.766 92.780,27.691 93.134,28.291 93.503 C 30.186 94.669,30.335 94.660,31.633 93.297 L 32.768 92.105 33.489 92.584 C 33.886 92.847,34.659 93.534,35.208 94.110 L 36.205 95.158 37.878 95.158 C 39.813 95.158,40.538 94.943,40.739 94.308 C 41.067 93.274,43.527 92.725,44.478 93.474 C 45.147 94.000,46.038 94.027,46.185 93.526 C 46.245 93.324,46.349 92.779,46.418 92.316 C 46.937 88.801,47.439 88.050,48.872 88.644 C 49.674 88.976,49.814 89.279,49.983 91.053 C 50.197 93.305,50.279 93.552,50.937 93.929 C 51.713 94.373,51.726 94.345,52.127 91.263 C 52.524 88.216,53.122 87.587,54.510 88.756 C 55.127 89.274,55.158 89.376,55.158 90.868 C 55.158 92.408,55.559 93.895,55.974 93.895 C 57.388 93.895,57.477 87.189,56.071 86.549 C 55.388 86.238,53.821 86.260,52.526 86.600 C 51.635 86.833,51.361 86.829,50.737 86.570 C 49.810 86.186,46.114 86.186,44.938 86.570 C 44.113 86.840,44.105 86.853,44.051 88.000 C 43.947 90.208,43.505 90.642,42.002 90.014 C 41.156 89.661,40.984 88.645,41.577 87.508 C 42.253 86.212,41.065 83.789,39.754 83.789 C 39.077 83.789,38.980 84.039,38.896 86.000 C 38.845 87.193,38.813 87.263,38.316 87.263 C 37.810 87.263,37.785 87.200,37.674 85.639 C 37.540 83.750,37.506 83.695,36.589 83.876 C 35.162 84.158,34.634 85.769,35.345 87.669 C 36.097 89.681,35.906 90.457,34.526 90.987 C 33.740 91.289,32.632 91.258,32.632 90.934 C 32.632 90.826,32.300 90.371,31.895 89.922 L 31.158 89.107 31.158 86.964 C 31.158 83.748,30.778 83.194,29.134 84.008 M14.878 85.976 L 15.567 86.977 15.443 89.330 C 15.312 91.812,15.080 92.494,14.284 92.747 C 12.437 93.333,11.878 87.464,13.556 85.098 C 13.844 84.692,14.119 84.874,14.878 85.976 M39.284 90.266 C 40.514 91.088,39.526 93.843,38.168 93.379 C 37.111 93.018,36.160 90.470,37.000 90.250 C 37.610 90.091,39.037 90.101,39.284 90.266 M327.792 135.945 C 326.830 136.124,326.097 136.868,325.278 138.496 L 324.467 140.110 324.961 141.055 C 325.366 141.830,325.456 142.330,325.464 143.838 C 325.487 148.331,327.590 148.611,327.756 144.143 C 327.824 142.313,327.866 142.161,328.552 141.273 C 328.993 140.702,329.224 140.209,329.143 140.010 C 328.805 139.177,328.800 138.096,329.131 137.591 C 329.580 136.906,329.124 135.692,328.465 135.818 C 328.383 135.834,328.080 135.891,327.792 135.945 M385.474 136.146 C 384.699 136.423,384.632 136.835,384.633 141.251 C 384.634 147.080,385.039 148.171,387.084 147.855 C 388.719 147.603,389.458 146.968,388.632 146.526 C 388.400 146.402,388.211 146.200,388.211 146.076 C 388.211 145.952,387.977 145.666,387.691 145.442 C 386.915 144.831,386.739 143.826,386.738 139.989 C 386.737 136.064,386.628 135.734,385.474 136.146 M358.708 136.635 C 358.519 136.746,358.304 137.145,358.230 137.523 C 357.968 138.866,357.509 139.196,355.771 139.287 C 353.208 139.420,352.648 140.187,352.473 143.804 C 352.325 146.857,353.373 147.682,357.149 147.483 C 359.556 147.357,360.034 147.152,360.608 146.001 C 361.451 144.315,362.472 144.310,363.456 145.988 C 364.616 147.969,370.248 148.045,371.099 146.092 C 371.828 144.418,371.392 140.801,370.364 139.993 C 368.586 138.594,364.636 139.094,363.628 140.845 C 362.867 142.167,361.139 142.393,360.823 141.212 C 360.744 140.917,360.610 139.789,360.525 138.706 C 360.440 137.623,360.264 136.667,360.133 136.582 C 359.804 136.369,359.121 136.394,358.708 136.635 M381.474 136.947 C 381.474 137.121,381.568 137.263,381.684 137.263 C 381.800 137.263,381.895 137.121,381.895 136.947 C 381.895 136.774,381.800 136.632,381.684 136.632 C 381.568 136.632,381.474 136.774,381.474 136.947 M395.993 142.754 C 395.939 145.716,395.947 148.416,396.012 148.754 L 396.128 149.368 396.222 148.737 C 396.274 148.389,396.265 145.689,396.204 142.737 L 396.092 137.368 395.993 142.754 M334.166 139.360 C 330.778 139.889,329.375 143.974,331.699 146.543 C 332.980 147.958,338.229 147.628,338.989 146.084 C 340.032 143.965,340.020 143.437,338.867 140.794 C 338.274 139.435,336.719 138.960,334.166 139.360 M380.041 139.321 C 378.790 139.526,378.305 147.079,379.452 148.504 C 379.907 149.068,380.841 149.121,380.854 148.583 C 380.916 146.032,380.787 139.448,380.673 139.358 C 380.592 139.294,380.308 139.277,380.041 139.321 M342.950 139.643 C 341.388 140.178,340.885 144.772,342.240 146.127 L 342.901 146.788 343.556 146.401 C 344.202 146.020,344.211 145.992,344.211 144.323 C 344.213 141.487,345.326 140.458,346.931 141.808 C 347.552 142.331,347.579 142.421,347.579 143.990 C 347.579 145.912,348.019 146.737,349.045 146.737 C 350.685 146.737,350.146 140.576,348.429 139.689 C 347.671 139.296,344.052 139.266,342.950 139.643 M357.900 141.842 C 358.472 142.567,358.405 144.293,357.775 145.083 C 356.844 146.249,354.971 145.192,354.737 143.369 L 354.599 142.296 355.458 141.782 C 356.602 141.096,357.325 141.114,357.900 141.842 M368.895 141.848 C 369.717 142.568,369.405 144.614,368.318 145.637 C 367.199 146.689,367.204 146.689,366.507 145.947 C 364.990 144.334,365.098 141.618,366.687 141.435 C 367.599 141.330,368.495 141.497,368.895 141.848 M336.776 141.931 C 337.867 142.957,336.662 146.526,335.224 146.526 C 333.865 146.526,332.664 142.915,333.684 141.895 C 334.296 141.282,336.108 141.304,336.776 141.931 M350.752 158.793 C 350.155 159.096,349.841 160.041,350.105 160.736 C 350.396 161.500,350.664 161.538,351.875 160.983 C 353.027 160.456,353.730 160.453,354.606 160.971 C 355.124 161.277,354.546 163.212,353.736 163.886 C 353.452 164.122,353.063 164.486,352.873 164.693 C 352.682 164.901,352.039 165.566,351.444 166.170 C 349.938 167.701,349.570 168.900,350.391 169.607 C 351.145 170.255,354.715 170.331,356.745 169.741 C 357.435 169.540,358.663 169.374,359.474 169.372 L 360.947 169.368 361.109 168.211 C 361.708 163.907,362.433 162.959,364.034 164.390 C 364.677 164.965,364.713 165.082,364.862 167.074 C 365.044 169.526,364.929 169.190,365.632 169.325 C 366.543 169.500,366.737 169.170,366.737 167.441 C 366.737 164.966,367.915 163.055,368.894 163.942 C 369.611 164.590,369.774 165.114,369.888 167.136 C 370.014 169.366,370.260 169.759,371.247 169.309 L 371.789 169.062 371.789 166.212 C 371.789 162.276,370.876 160.948,368.878 161.981 C 368.124 162.371,366.278 162.423,365.624 162.073 C 364.758 161.610,360.710 161.636,359.779 162.110 C 358.568 162.728,358.451 163.087,358.843 164.984 C 359.297 167.180,359.008 168.421,358.044 168.421 C 356.735 168.421,354.947 167.925,354.295 167.381 L 353.595 166.796 354.466 166.188 C 354.944 165.853,355.527 165.247,355.760 164.842 C 355.992 164.437,356.568 163.731,357.039 163.273 C 358.152 162.190,358.167 161.562,357.105 160.460 C 356.671 160.009,356.110 159.390,355.858 159.083 C 355.335 158.447,351.825 158.247,350.752 158.793 M326.017 159.211 C 324.808 161.063,324.919 168.703,326.167 169.577 C 326.824 170.038,330.106 170.014,331.102 169.542 C 333.466 168.419,333.738 161.676,331.513 159.316 C 330.738 158.493,326.537 158.413,326.017 159.211 M343.177 159.422 C 342.783 159.682,342.080 160.134,341.615 160.426 C 340.428 161.170,340.441 161.345,341.769 162.621 C 342.417 163.244,342.955 163.832,342.963 163.929 C 342.972 164.026,343.048 165.225,343.131 166.593 C 343.306 169.458,343.638 169.987,344.749 169.175 C 345.127 168.899,345.163 168.549,345.222 164.556 C 345.306 158.958,345.010 158.214,343.177 159.422 M329.455 160.727 C 330.604 161.322,330.769 166.528,329.668 167.455 C 328.028 168.835,327.368 167.855,327.368 164.041 C 327.368 160.457,327.752 159.847,329.455 160.727 M335.806 168.480 C 335.083 168.844,335.047 169.181,335.685 169.599 C 336.217 169.947,336.255 169.944,336.692 169.507 C 337.339 168.860,336.647 168.057,335.806 168.480 M375.551 168.611 C 375.063 169.007,375.062 169.019,375.456 169.454 C 375.973 170.026,376.524 170.014,376.942 169.421 C 377.548 168.562,376.422 167.906,375.551 168.611 M222.463 172.218 C 222.023 172.295,221.554 172.467,221.421 172.600 C 221.288 172.733,220.875 172.842,220.503 172.842 C 219.658 172.842,218.810 173.772,218.625 174.901 C 218.350 176.573,218.027 177.918,217.879 178.010 C 217.660 178.145,216.348 176.267,215.808 175.046 C 214.420 171.907,212.174 171.857,211.379 174.947 C 210.280 179.217,209.766 179.409,208.842 175.895 C 208.087 173.020,206.121 171.369,204.837 172.531 C 204.274 173.040,204.310 173.342,205.067 174.442 C 206.135 175.995,206.726 177.595,207.146 180.071 C 207.709 183.396,207.956 183.884,209.346 184.412 C 210.304 184.777,210.750 184.197,212.095 180.842 C 213.316 177.795,214.274 177.660,214.874 180.449 C 215.417 182.976,217.312 185.299,218.063 184.357 C 218.787 183.448,220.102 179.856,220.523 177.638 C 221.030 174.963,221.540 174.407,223.167 174.757 L 224.124 174.963 224.103 179.745 C 224.079 185.338,224.049 185.147,224.872 184.722 C 226.468 183.896,226.634 175.742,225.061 175.370 C 224.766 175.301,224.494 175.037,224.404 174.731 C 224.319 174.445,224.126 173.763,223.975 173.216 C 223.664 172.087,223.568 172.024,222.463 172.218 M150.020 172.389 C 149.937 172.522,149.691 172.632,149.471 172.632 C 149.232 172.632,148.802 173.030,148.393 173.632 C 148.019 174.182,147.399 175.004,147.014 175.459 C 146.245 176.370,146.146 176.860,146.645 177.275 C 147.248 177.775,147.579 178.702,147.594 179.937 C 147.627 182.560,148.238 184.421,149.066 184.421 C 149.491 184.421,149.895 182.614,149.895 180.716 C 149.895 178.392,150.428 177.474,151.778 177.474 C 152.627 177.474,152.824 177.981,153.038 180.721 C 153.309 184.181,155.058 184.864,155.137 181.540 C 155.193 179.200,156.984 177.147,158.612 177.555 C 159.070 177.670,159.103 177.800,159.208 179.860 C 159.391 183.444,160.941 184.867,164.450 184.674 C 166.024 184.587,165.715 183.443,164.069 183.267 C 163.263 183.181,162.556 182.971,162.266 182.733 L 161.789 182.341 162.269 181.855 C 162.684 181.434,162.958 181.368,164.299 181.368 C 166.116 181.368,166.604 181.065,166.970 179.705 C 167.822 176.542,165.257 174.859,161.320 175.997 C 159.743 176.452,159.532 176.467,158.389 176.204 C 156.995 175.882,155.673 175.852,153.682 176.095 C 152.333 176.259,152.295 176.250,151.366 175.536 C 150.417 174.807,150.351 174.620,150.632 173.474 C 150.779 172.876,150.273 171.980,150.020 172.389 M180.785 174.350 C 180.619 174.621,180.238 175.276,179.938 175.807 L 179.392 176.772 179.851 177.231 C 180.253 177.633,180.326 177.999,180.436 180.161 C 180.613 183.613,181.134 184.610,182.773 184.625 C 183.813 184.634,184.030 183.843,183.346 182.531 C 183.038 181.939,182.848 181.121,182.783 180.102 L 182.684 178.565 183.447 177.802 C 184.491 176.758,184.433 176.433,182.937 174.937 C 181.872 173.872,181.192 173.686,180.785 174.350 M202.004 175.361 C 201.811 175.733,201.468 176.994,201.242 178.164 L 200.830 180.290 201.270 182.619 C 201.935 186.137,202.199 186.783,202.672 186.053 C 202.765 185.908,202.871 183.989,202.905 181.789 C 202.940 179.589,202.988 177.248,203.011 176.586 C 203.068 174.957,202.543 174.318,202.004 175.361 M172.660 175.804 C 172.038 175.914,171.209 176.156,170.817 176.342 L 170.105 176.680 170.105 179.298 C 170.105 181.947,170.282 182.729,171.020 183.341 C 171.667 183.879,172.421 182.411,172.422 180.612 C 172.423 178.674,172.910 177.684,173.863 177.684 C 175.183 177.684,175.996 178.984,175.999 181.098 C 176.001 183.080,177.145 184.131,177.940 182.882 C 178.299 182.317,178.122 178.122,177.705 177.304 C 177.014 175.949,175.087 175.377,172.660 175.804 M188.173 175.766 C 185.759 176.274,184.370 180.686,185.965 182.778 C 187.489 184.775,191.579 185.661,191.579 183.994 C 191.579 183.296,191.283 183.158,189.780 183.158 C 188.488 183.158,187.992 182.697,188.421 181.895 C 188.664 181.441,189.031 181.381,191.079 181.462 C 192.692 181.526,193.474 180.763,193.474 179.125 C 193.474 176.507,191.275 175.113,188.173 175.766 M164.664 178.197 C 164.997 178.929,164.765 179.324,163.907 179.485 C 162.431 179.762,161.711 179.286,161.981 178.210 C 162.179 177.423,164.306 177.412,164.664 178.197 M190.826 178.370 C 191.085 179.107,190.834 179.372,189.762 179.496 C 188.653 179.624,188.165 179.225,188.344 178.335 C 188.535 177.378,190.489 177.405,190.826 178.370 M223.298 185.614 C 223.221 185.691,223.158 186.279,223.158 186.919 C 223.158 188.354,223.493 188.143,223.698 186.579 C 223.833 185.557,223.693 185.220,223.298 185.614 M176.316 194.916 C 174.621 195.467,174.962 196.090,177.358 196.825 C 179.225 197.398,179.525 197.663,179.087 198.354 C 178.917 198.623,178.711 199.174,178.628 199.579 C 178.546 199.984,178.145 201.168,177.738 202.211 C 176.902 204.350,176.833 205.351,177.481 205.989 L 177.918 206.421 178.505 205.771 C 178.896 205.337,179.137 204.784,179.230 204.112 C 179.306 203.557,179.547 202.808,179.765 202.446 C 179.984 202.085,180.313 201.268,180.495 200.632 C 180.678 199.995,181.136 199.101,181.513 198.647 C 182.136 197.895,183.158 195.990,183.158 195.581 C 183.158 194.918,177.885 194.405,176.316 194.916 M162.632 195.100 C 160.523 195.618,159.878 204.314,161.814 206.127 C 162.531 206.798,165.220 206.786,166.371 206.107 C 168.591 204.797,169.167 200.375,167.526 197.231 C 166.402 195.077,165.075 194.499,162.632 195.100 M189.368 195.616 C 188.814 195.940,188.475 196.414,187.524 198.199 C 186.525 200.073,186.561 200.433,187.789 200.842 L 188.737 201.158 187.060 201.263 C 184.076 201.450,183.348 204.421,186.286 204.421 C 186.639 204.421,187.647 204.800,188.526 205.263 C 190.469 206.286,190.817 206.302,191.665 205.403 C 192.639 204.371,193.308 204.269,193.968 205.053 C 195.011 206.292,196.408 205.610,196.428 203.853 C 196.431 203.528,196.575 203.077,196.748 202.849 C 196.920 202.621,197.159 202.072,197.278 201.629 C 197.596 200.447,198.699 200.067,199.539 200.850 C 199.935 201.219,200.000 201.505,200.000 202.870 C 200.000 204.468,200.361 205.535,200.981 205.773 C 201.354 205.916,202.105 204.791,202.105 204.090 C 202.105 201.619,202.806 200.211,204.035 200.211 C 204.914 200.211,205.263 200.895,205.265 202.626 C 205.269 204.979,205.442 205.657,206.128 206.012 C 207.177 206.554,207.487 205.744,207.415 202.640 C 207.319 198.533,206.941 198.056,204.170 198.549 C 203.098 198.740,202.473 198.742,201.556 198.558 C 200.046 198.254,196.578 198.245,195.509 198.542 C 194.606 198.793,194.105 199.637,194.105 200.908 C 194.105 201.801,193.570 202.320,192.802 202.171 C 191.718 201.961,191.596 201.602,191.533 198.411 L 191.474 195.474 190.632 195.422 C 190.168 195.394,189.600 195.481,189.368 195.616 M165.489 198.135 C 165.899 200.261,165.729 203.205,165.145 204.064 L 164.606 204.857 163.777 204.200 L 162.947 203.544 162.947 200.729 C 162.947 197.652,163.121 196.965,163.978 196.664 C 164.716 196.404,165.256 196.929,165.489 198.135 " stroke="none" fill="#b25954" fill-rule="evenodd"></path><path id="path1" d="M0.000 105.263 L 0.000 210.526 200.000 210.526 L 400.000 210.526 400.000 105.263 L 400.000 0.000 200.000 0.000 L 0.000 0.000 0.000 105.263 M290.927 2.591 C 291.322 2.729,291.937 3.206,292.296 3.651 L 292.947 4.460 293.009 62.704 C 293.043 94.738,293.013 121.442,292.942 122.047 C 292.795 123.305,292.560 123.646,289.368 127.239 C 285.928 131.113,284.168 133.116,283.053 134.429 C 281.183 136.629,279.489 138.350,278.842 138.705 C 277.999 139.169,97.271 139.358,95.873 138.896 C 95.328 138.716,94.865 138.339,94.430 137.719 L 93.789 136.806 93.731 78.877 C 93.664 12.052,93.422 19.085,95.896 16.105 C 97.368 14.334,99.922 11.389,101.368 9.797 C 101.716 9.414,102.474 8.556,103.053 7.890 C 103.632 7.224,104.350 6.431,104.650 6.129 C 104.950 5.826,105.464 5.217,105.792 4.775 C 106.397 3.959,107.965 2.745,108.736 2.495 C 109.574 2.223,290.150 2.318,290.927 2.591 M109.579 6.462 C 108.996 6.597,105.001 10.873,102.755 13.766 C 102.475 14.126,101.880 14.807,101.432 15.278 L 100.617 16.136 101.061 16.699 L 101.504 17.263 189.001 17.263 C 275.984 17.263,276.504 17.261,277.366 16.843 C 278.143 16.467,281.031 13.573,281.579 12.621 C 281.806 12.226,284.727 8.994,285.842 7.903 C 286.687 7.076,286.687 7.072,285.810 6.656 C 285.124 6.330,110.978 6.138,109.579 6.462 M287.393 11.683 C 286.784 12.203,285.981 12.984,285.610 13.419 C 285.238 13.855,284.728 14.447,284.475 14.737 C 282.295 17.232,280.739 19.181,280.400 19.838 C 279.770 21.060,279.872 129.873,280.504 130.837 L 280.902 131.445 281.314 130.933 C 281.541 130.652,282.421 129.663,283.271 128.737 C 286.204 125.540,288.406 122.956,288.729 122.332 C 289.060 121.691,289.248 12.435,288.920 11.211 C 288.748 10.570,288.667 10.595,287.393 11.683 M82.121 17.952 C 82.589 18.267,82.917 18.717,83.084 19.268 C 83.436 20.438,83.484 136.434,83.132 137.119 C 81.966 139.390,79.975 139.655,78.916 137.681 C 78.469 136.847,78.288 20.722,78.732 19.175 C 79.210 17.506,80.675 16.978,82.121 17.952 M98.626 21.347 C 97.400 21.881,97.474 18.236,97.474 78.752 L 97.474 134.747 98.053 135.005 C 98.925 135.394,275.056 135.381,275.737 134.993 L 276.211 134.722 276.211 78.719 C 276.211 17.081,276.316 21.772,274.922 21.286 C 273.855 20.914,99.482 20.974,98.626 21.347 M61.160 60.476 C 65.531 64.923,63.159 79.229,58.506 76.481 C 57.677 75.991,57.712 75.355,58.679 73.327 L 59.463 71.684 59.468 67.789 L 59.474 63.895 58.895 63.076 C 58.576 62.626,58.316 62.169,58.316 62.060 C 58.316 61.952,58.157 61.894,57.963 61.932 C 57.362 62.048,57.208 63.106,57.129 67.668 C 57.043 72.651,56.973 72.911,55.638 73.124 C 53.410 73.480,52.421 72.514,52.421 69.979 C 52.421 68.042,52.255 67.789,50.978 67.789 C 49.760 67.789,49.684 67.901,49.684 69.681 C 49.684 71.421,49.307 72.700,48.727 72.922 C 47.778 73.286,46.698 73.056,45.979 72.337 L 45.263 71.621 45.263 68.363 C 45.263 63.719,45.096 63.102,44.246 64.613 C 43.383 66.149,43.349 70.748,44.183 73.158 C 45.021 75.578,45.029 76.082,44.236 76.410 C 42.960 76.939,41.251 76.113,40.830 74.764 C 40.700 74.344,40.318 73.272,39.983 72.382 C 39.061 69.934,38.976 68.269,39.673 66.316 C 39.983 65.447,40.365 64.298,40.521 63.762 C 41.385 60.798,43.437 59.123,45.141 59.991 C 45.872 60.364,46.006 60.374,46.543 60.097 C 48.227 59.226,49.684 60.629,49.684 63.122 C 49.684 65.223,52.261 64.765,52.482 62.625 C 52.794 59.609,56.359 58.372,56.952 61.074 C 57.127 61.870,57.474 61.860,57.474 61.060 C 57.474 59.347,59.703 58.993,61.160 60.476 M17.281 60.895 L 18.311 62.000 19.366 61.421 C 20.694 60.692,21.552 60.673,22.167 61.358 C 23.028 62.315,23.728 63.259,24.062 63.910 C 24.480 64.726,24.967 65.151,25.148 64.857 C 26.162 63.217,30.408 62.370,32.421 63.407 C 35.230 64.854,35.692 71.096,33.115 72.784 C 31.881 73.593,26.559 73.407,25.503 72.519 C 24.907 72.017,24.893 72.015,24.529 72.418 C 23.462 73.597,20.787 73.553,19.297 72.332 L 18.317 71.529 17.474 72.291 C 16.537 73.137,15.044 73.349,14.196 72.756 C 13.826 72.497,13.628 72.511,12.623 72.872 C 11.023 73.447,5.341 73.380,4.678 72.779 C 3.267 71.501,3.022 69.722,4.126 68.773 C 4.702 68.277,4.708 68.245,4.488 67.030 C 3.955 64.092,4.986 62.949,8.168 62.948 C 10.405 62.947,10.864 63.121,12.078 64.432 C 12.975 65.401,13.169 65.336,13.365 64.000 C 14.013 59.579,15.188 58.648,17.281 60.895 M28.912 67.846 C 28.062 68.804,28.871 70.187,30.042 69.778 C 30.643 69.567,31.027 68.181,30.593 67.789 C 30.119 67.361,29.319 67.388,28.912 67.846 M15.843 82.406 C 18.290 83.279,18.769 84.281,18.966 88.936 C 19.138 93.019,19.109 93.149,17.698 94.552 C 16.181 96.062,14.269 96.474,11.853 95.811 C 8.961 95.018,8.260 85.628,10.904 83.094 C 11.840 82.198,14.299 81.855,15.843 82.406 M31.572 82.881 C 32.126 83.585,32.492 85.518,32.361 87.046 C 32.211 88.794,32.391 89.314,33.230 89.555 C 34.426 89.897,34.701 89.376,34.138 87.833 C 33.078 84.927,34.645 82.370,37.614 82.160 C 40.108 81.984,41.138 82.529,42.880 84.947 L 43.335 85.579 47.194 85.622 C 49.316 85.645,51.526 85.649,52.105 85.630 C 57.794 85.445,58.526 86.105,58.526 91.409 C 58.526 94.510,58.149 95.279,56.441 95.656 C 54.936 95.988,54.079 94.985,53.893 92.676 C 53.774 91.191,53.740 91.062,53.714 92.000 C 53.641 94.638,52.555 95.991,50.754 95.687 C 49.127 95.412,48.421 94.265,48.421 91.894 C 48.421 91.300,48.339 90.973,48.211 91.053 C 48.095 91.124,48.000 91.514,48.000 91.919 C 48.000 95.145,46.165 96.466,43.535 95.133 C 42.526 94.622,42.385 94.631,41.453 95.277 C 39.651 96.526,36.053 96.407,34.549 95.048 C 33.322 93.939,32.867 93.923,31.682 94.949 C 30.461 96.006,29.790 95.980,28.078 94.809 C 27.242 94.237,26.673 94.029,25.552 93.884 C 23.538 93.625,23.617 93.607,23.288 94.394 C 22.390 96.544,19.352 96.142,19.686 93.917 C 19.936 92.249,20.794 91.672,22.220 92.214 C 22.930 92.484,23.061 92.328,23.265 90.968 C 23.437 89.817,23.830 89.003,24.713 87.968 C 25.073 87.545,25.558 86.907,25.789 86.549 C 28.073 83.028,28.479 82.599,29.789 82.318 C 30.650 82.134,31.095 82.275,31.572 82.881 M62.324 92.429 C 63.336 93.441,63.444 94.898,62.546 95.428 C 61.251 96.194,59.789 95.621,59.789 94.347 C 59.789 92.467,61.254 91.359,62.324 92.429 M313.776 120.747 C 314.762 121.393,315.137 123.260,314.465 124.178 C 313.530 125.455,311.862 127.472,310.526 128.940 C 309.774 129.768,308.637 131.043,308.000 131.774 C 307.363 132.506,306.416 133.556,305.895 134.108 C 305.374 134.660,304.521 135.607,304.000 136.212 C 302.120 138.394,301.769 138.698,300.847 138.946 C 298.523 139.572,297.330 136.833,299.230 135.235 C 299.596 134.927,300.006 134.413,300.141 134.091 C 300.276 133.769,300.751 133.144,301.197 132.700 C 301.642 132.257,302.287 131.516,302.630 131.053 C 302.973 130.589,303.777 129.635,304.416 128.932 C 305.056 128.229,306.069 127.092,306.669 126.406 C 309.615 123.032,310.576 121.989,310.905 121.810 C 311.102 121.703,311.593 121.346,311.995 121.018 C 312.835 120.333,313.086 120.295,313.776 120.747 M395.859 135.051 C 396.975 135.518,397.051 136.046,397.046 143.368 C 397.042 150.408,396.947 151.238,396.063 151.946 C 394.945 152.843,394.190 152.249,393.958 150.290 C 393.811 149.051,393.402 148.528,392.758 148.755 C 392.012 149.020,386.053 149.102,385.409 148.858 C 384.306 148.438,384.131 147.596,384.041 142.246 C 383.933 135.894,384.110 135.158,385.743 135.158 C 387.575 135.158,388.000 136.150,388.000 140.424 C 388.000 144.745,388.185 145.053,390.779 145.053 C 392.132 145.053,392.951 145.502,393.477 146.533 C 393.886 147.335,394.568 147.527,395.158 147.006 C 395.216 146.954,395.263 145.144,395.263 142.983 L 395.263 139.053 394.564 137.974 C 393.692 136.629,393.951 135.012,395.080 134.743 C 395.094 134.740,395.445 134.878,395.859 135.051 M382.826 135.827 C 383.685 136.831,383.715 136.975,383.218 137.685 C 383.019 137.968,382.637 138.818,382.368 139.574 C 381.166 142.945,381.090 145.811,382.145 147.976 C 382.914 149.555,383.014 150.960,382.422 151.864 C 381.889 152.677,381.614 152.574,380.108 151.000 L 378.748 149.579 378.085 146.757 L 377.422 143.936 378.110 141.105 C 378.558 139.263,378.961 138.080,379.264 137.716 C 379.521 137.409,379.884 136.858,380.071 136.492 C 380.914 134.848,381.804 134.633,382.826 135.827 M329.789 135.460 C 330.698 135.840,330.959 136.652,330.454 137.532 C 329.456 139.271,330.189 139.713,332.709 138.891 C 335.410 138.010,337.293 137.987,338.499 138.823 C 338.977 139.155,339.370 139.484,339.372 139.555 C 339.388 140.191,340.842 140.200,340.842 139.564 C 340.842 138.759,346.454 137.793,347.804 138.365 C 349.229 138.969,350.343 139.804,350.562 140.433 C 350.862 141.294,352.000 141.040,352.000 140.112 C 352.000 139.293,354.197 138.109,355.721 138.106 C 356.413 138.105,356.749 137.792,357.756 136.211 C 358.189 135.529,358.314 135.469,359.405 135.411 C 361.224 135.315,361.694 135.819,361.893 138.081 C 362.084 140.263,362.485 140.833,363.215 139.962 C 364.555 138.363,368.236 137.692,370.200 138.687 C 372.245 139.724,373.220 143.822,371.989 146.212 C 370.447 149.209,366.248 150.002,363.717 147.774 C 362.613 146.803,362.256 146.807,361.111 147.806 C 358.850 149.778,354.523 149.374,352.083 146.964 C 351.372 146.262,350.904 146.411,350.316 147.527 C 348.939 150.141,346.534 148.406,346.088 144.475 C 345.863 142.499,345.801 142.316,345.356 142.316 C 345.113 142.316,345.053 142.711,345.053 144.289 C 345.053 148.463,343.775 149.665,341.284 147.837 C 340.034 146.920,339.959 146.935,337.747 148.543 C 335.964 149.839,332.346 148.838,330.415 146.514 C 329.988 146.000,329.602 145.540,329.557 145.493 C 329.358 145.280,328.610 146.246,328.416 146.965 C 328.182 147.836,327.155 148.842,326.500 148.842 C 325.341 148.842,324.635 147.139,324.633 144.341 C 324.632 142.641,324.573 142.370,323.984 141.340 L 323.336 140.209 324.107 138.586 C 325.664 135.306,327.285 134.414,329.789 135.460 M334.496 142.246 C 333.755 142.443,333.892 144.350,334.667 144.645 C 335.621 145.008,336.304 144.487,336.379 143.341 C 336.453 142.196,335.898 141.874,334.496 142.246 M366.474 142.250 C 365.922 142.395,365.972 143.867,366.548 144.443 C 367.447 145.342,368.623 144.709,368.628 143.323 C 368.633 142.260,367.877 141.884,366.474 142.250 M356.000 143.040 C 356.000 143.877,356.237 144.092,356.959 143.911 C 357.891 143.677,357.701 142.316,356.737 142.316 C 356.037 142.316,356.000 142.353,356.000 143.040 M277.947 149.921 C 280.815 150.896,281.063 152.699,278.478 153.779 C 277.778 154.072,268.353 154.105,186.647 154.105 L 95.597 154.105 94.746 153.296 C 93.144 151.772,93.663 150.607,96.316 149.768 C 96.989 149.555,115.152 149.499,186.894 149.488 L 276.630 149.474 277.947 149.921 M346.077 158.613 L 346.615 159.151 346.623 164.140 C 346.633 169.768,346.625 169.799,344.988 170.532 C 343.230 171.319,342.319 170.335,342.311 167.642 C 342.303 165.157,342.076 164.453,340.963 163.474 C 339.265 161.979,339.232 160.956,340.852 160.000 C 341.343 159.711,342.038 159.170,342.398 158.798 C 343.567 157.593,344.985 157.521,346.077 158.613 M331.796 158.279 C 333.312 158.859,333.664 160.051,333.672 164.632 C 333.679 168.923,333.648 169.024,331.921 170.211 C 329.655 171.769,325.914 171.291,324.916 169.315 C 323.672 166.850,323.911 159.855,325.283 158.614 C 326.005 157.960,330.373 157.735,331.796 158.279 M355.782 158.103 C 356.183 158.218,357.003 158.800,357.612 159.401 L 358.715 160.490 361.942 160.445 C 365.096 160.401,365.180 160.411,365.640 160.900 C 366.193 161.489,367.131 161.453,367.704 160.820 C 368.463 159.982,370.680 160.257,371.710 161.317 C 373.043 162.689,373.189 163.139,373.344 166.346 L 373.482 169.219 372.794 169.799 C 370.462 171.765,368.854 170.868,368.827 167.585 C 368.819 166.597,368.739 165.602,368.650 165.373 C 368.337 164.573,368.000 165.750,368.000 167.642 C 368.000 170.572,366.232 171.668,364.227 169.981 C 363.594 169.449,363.579 169.394,363.579 167.584 C 363.579 166.097,363.502 165.636,363.191 165.251 L 362.802 164.772 362.559 165.470 C 362.425 165.854,362.316 166.861,362.316 167.708 C 362.316 170.671,362.390 170.641,354.172 171.083 C 349.010 171.361,347.611 170.249,349.421 167.307 C 350.146 166.129,352.361 163.704,352.866 163.536 C 353.136 163.446,353.363 161.827,353.175 161.338 C 353.056 161.027,352.974 161.071,352.638 161.623 C 351.971 162.720,350.285 162.794,349.078 161.778 C 347.908 160.794,348.696 158.649,350.421 158.125 C 351.286 157.862,354.891 157.847,355.782 158.103 M328.342 161.921 C 327.950 163.880,328.270 167.195,328.819 166.857 C 329.254 166.588,329.076 161.263,328.632 161.263 C 328.545 161.263,328.414 161.559,328.342 161.921 M357.187 165.215 C 357.108 165.345,356.568 165.758,355.987 166.134 C 354.759 166.930,354.936 167.222,356.581 167.117 C 357.473 167.059,357.586 166.996,357.641 166.518 C 357.720 165.845,357.387 164.892,357.187 165.215 M337.188 167.808 C 337.815 168.196,338.316 168.789,338.316 169.143 C 338.316 169.542,336.728 170.947,336.277 170.947 C 334.173 170.947,333.664 168.008,335.684 167.519 C 336.401 167.346,336.457 167.356,337.188 167.808 M377.050 167.683 C 377.630 167.983,378.316 168.750,378.316 169.099 C 378.316 169.189,377.973 169.641,377.554 170.105 C 376.577 171.186,375.809 171.238,374.916 170.282 C 373.516 168.783,375.204 166.728,377.050 167.683 M152.167 171.916 C 152.771 172.312,152.694 173.261,151.997 174.003 C 151.456 174.579,151.467 174.643,152.158 174.908 C 152.885 175.188,159.717 175.308,162.105 175.083 C 165.366 174.775,167.789 175.577,167.789 176.963 C 167.789 177.183,168.121 177.009,168.809 176.428 C 170.412 175.077,173.907 174.549,176.630 175.246 C 178.350 175.687,178.923 175.556,179.567 174.574 C 180.871 172.588,182.026 172.222,182.984 173.491 C 183.253 173.848,183.940 174.607,184.510 175.178 L 185.546 176.216 186.022 175.769 C 187.065 174.789,191.736 174.733,193.186 175.684 C 195.049 176.904,194.466 184.054,192.417 185.117 C 191.413 185.637,187.414 185.544,186.348 184.975 C 185.661 184.609,185.614 184.611,184.496 185.065 C 183.007 185.669,181.176 185.547,180.526 184.800 C 179.820 183.989,178.999 183.717,178.833 184.239 C 178.330 185.823,175.206 185.322,174.738 183.583 C 174.614 183.122,174.326 182.644,174.098 182.522 C 173.813 182.370,173.674 182.058,173.651 181.519 L 173.617 180.737 173.538 181.474 C 173.229 184.386,172.772 185.123,171.277 185.123 C 169.807 185.123,169.432 184.761,168.298 182.244 C 167.877 181.310,167.704 181.477,167.505 183.008 C 167.240 185.051,166.555 185.474,163.514 185.474 C 160.372 185.474,158.568 184.098,158.207 181.428 C 158.013 179.990,157.783 179.579,157.173 179.579 C 156.550 179.579,156.434 179.880,156.203 182.096 C 155.915 184.854,155.038 185.676,153.153 184.957 C 151.876 184.469,151.569 183.761,151.371 180.842 L 151.221 178.632 151.190 180.358 C 151.119 184.177,150.207 185.759,148.369 185.251 C 147.097 184.900,146.533 183.479,146.529 180.616 C 146.527 179.242,146.438 178.859,145.885 177.838 L 145.243 176.654 145.684 175.790 C 145.926 175.315,146.269 174.871,146.446 174.803 C 146.623 174.736,146.984 174.196,147.248 173.603 C 148.181 171.512,150.393 170.754,152.167 171.916 M207.704 171.769 C 208.805 172.269,209.422 173.266,209.764 175.096 L 210.031 176.526 210.184 175.368 C 210.756 171.046,214.338 170.082,216.514 173.664 C 217.635 175.509,217.835 175.605,218.011 174.382 C 218.358 171.972,218.677 171.709,221.534 171.471 C 223.700 171.291,224.486 171.526,224.987 172.503 C 225.171 172.863,225.539 173.417,225.803 173.734 C 227.442 175.699,227.501 184.066,225.891 186.105 C 225.662 186.395,225.238 187.078,224.948 187.624 C 224.135 189.157,223.401 189.407,222.338 188.513 C 221.576 187.871,221.591 187.347,222.470 183.913 C 223.054 181.632,223.073 178.430,222.510 177.203 L 222.241 176.616 221.741 177.834 C 221.467 178.504,221.106 179.692,220.940 180.473 C 219.819 185.744,216.508 187.119,214.532 183.136 C 213.447 180.949,213.334 180.851,213.062 181.860 C 212.935 182.333,212.735 182.778,212.619 182.850 C 212.503 182.922,212.214 183.392,211.978 183.895 C 211.425 185.071,210.457 185.574,209.131 185.375 C 207.509 185.132,207.211 184.690,206.408 181.329 C 205.684 178.300,204.719 175.828,204.389 176.158 C 203.557 176.990,203.740 183.999,204.654 186.293 C 205.432 188.246,205.196 188.750,203.587 188.569 C 202.114 188.403,201.297 187.376,200.363 184.516 C 199.137 180.766,199.255 179.009,201.015 174.847 C 202.237 171.956,205.157 170.612,207.704 171.769 M182.448 194.207 C 183.026 194.378,183.728 194.763,184.008 195.061 L 184.517 195.603 183.891 196.797 C 183.547 197.454,182.805 198.691,182.241 199.546 C 181.229 201.081,180.934 201.976,180.538 204.701 C 180.359 205.936,178.760 207.789,177.875 207.789 C 175.844 207.789,175.477 204.496,177.065 200.529 C 177.823 198.635,177.634 197.840,176.369 197.603 C 173.795 197.120,173.629 194.585,176.139 194.099 C 177.619 193.813,181.336 193.877,182.448 194.207 M166.526 194.380 C 168.889 195.186,170.486 201.668,169.078 204.737 C 168.529 205.932,166.564 207.724,165.603 207.904 C 161.404 208.692,159.244 206.204,159.416 200.781 C 159.595 195.127,162.101 192.871,166.526 194.380 M191.881 194.847 C 192.241 195.235,192.412 195.740,192.517 196.721 C 192.686 198.300,193.106 199.043,193.526 198.506 C 194.359 197.443,199.376 196.813,201.131 197.552 C 202.123 197.969,202.881 197.978,203.579 197.579 C 206.292 196.028,208.313 198.123,208.662 202.846 L 208.873 205.709 208.317 206.438 C 206.364 208.999,204.826 208.032,204.639 204.125 C 204.500 201.250,203.876 200.997,203.808 203.789 C 203.682 209.002,198.951 208.757,198.946 203.538 C 198.945 202.231,198.940 202.220,198.630 202.814 C 198.457 203.145,198.316 203.631,198.316 203.893 C 198.316 204.155,198.174 204.487,198.000 204.632 C 197.826 204.776,197.684 205.095,197.683 205.342 C 197.680 207.177,195.187 208.275,193.917 207.000 C 193.220 206.300,192.476 206.322,191.779 207.064 C 190.871 208.030,189.547 207.771,187.776 206.282 C 187.214 205.810,186.593 205.474,186.281 205.474 C 184.023 205.474,182.876 202.704,184.325 200.751 C 186.109 198.347,186.577 197.675,186.969 196.954 C 188.366 194.386,190.575 193.438,191.881 194.847 M172.938 204.131 C 173.566 204.372,173.947 205.415,173.690 206.192 C 173.120 207.919,171.435 208.293,170.823 206.828 C 169.999 204.857,171.117 203.432,172.938 204.131 M212.970 204.532 C 213.721 205.677,212.946 207.789,211.776 207.789 C 211.118 207.789,210.105 206.758,210.105 206.089 C 210.105 205.818,209.949 205.675,209.632 205.656 L 209.158 205.627 209.632 205.536 C 209.922 205.480,210.105 205.292,210.105 205.050 C 210.105 203.993,212.351 203.587,212.970 204.532 " stroke="none" fill="#fbfbfb" fill-rule="evenodd"></path><path id="path2" d="M108.736 2.495 C 107.965 2.745,106.397 3.959,105.792 4.775 C 105.464 5.217,104.950 5.826,104.650 6.129 C 104.350 6.431,103.632 7.224,103.053 7.890 C 102.474 8.556,101.716 9.414,101.368 9.797 C 99.922 11.389,97.368 14.334,95.896 16.105 C 93.422 19.085,93.664 12.052,93.731 78.877 L 93.789 136.806 94.430 137.719 C 94.865 138.339,95.328 138.716,95.873 138.896 C 97.271 139.358,277.999 139.169,278.842 138.705 C 279.489 138.350,281.183 136.629,283.053 134.429 C 284.168 133.116,285.928 131.113,289.368 127.239 C 292.560 123.646,292.795 123.305,292.942 122.047 C 293.013 121.442,293.043 94.738,293.009 62.704 L 292.947 4.460 292.296 3.651 C 291.937 3.206,291.322 2.729,290.927 2.591 C 290.150 2.318,109.574 2.223,108.736 2.495 M289.773 3.810 C 291.975 4.422,292.344 6.269,291.027 10.105 C 290.936 10.371,290.886 10.362,290.711 10.051 C 289.942 8.681,286.737 9.011,286.737 10.460 C 286.737 10.923,285.411 11.375,285.183 10.989 C 285.055 10.773,285.123 10.570,285.402 10.338 C 285.625 10.152,285.937 9.741,286.095 9.425 C 286.254 9.108,286.534 8.799,286.718 8.738 C 288.444 8.167,287.886 5.081,286.053 5.059 C 285.553 5.054,285.474 4.967,285.474 4.431 C 285.474 3.810,285.478 3.809,286.895 3.735 C 287.676 3.695,288.458 3.643,288.632 3.621 C 288.805 3.599,289.319 3.684,289.773 3.810 M112.421 4.495 C 112.421 4.963,112.328 4.997,110.748 5.119 C 108.516 5.291,107.694 5.651,107.349 6.606 C 107.104 7.284,106.379 7.789,105.653 7.789 C 105.299 7.789,105.483 7.226,105.976 6.797 C 106.253 6.556,106.587 6.034,106.718 5.637 C 107.172 4.262,112.421 3.211,112.421 4.495 M285.810 6.656 C 286.687 7.072,286.687 7.076,285.842 7.903 C 284.727 8.994,281.806 12.226,281.579 12.621 C 281.031 13.573,278.143 16.467,277.366 16.843 C 276.504 17.261,275.984 17.263,189.001 17.263 L 101.504 17.263 101.061 16.699 L 100.617 16.136 101.432 15.278 C 101.880 14.807,102.475 14.126,102.755 13.766 C 105.001 10.873,108.996 6.597,109.579 6.462 C 110.978 6.138,285.124 6.330,285.810 6.656 M103.498 10.487 C 103.349 10.728,102.526 10.965,102.526 10.767 C 102.526 10.618,103.422 10.155,103.547 10.239 C 103.588 10.266,103.566 10.377,103.498 10.487 M288.920 11.211 C 289.248 12.435,289.060 121.691,288.729 122.332 C 288.406 122.956,286.204 125.540,283.271 128.737 C 282.421 129.663,281.541 130.652,281.314 130.933 L 280.902 131.445 280.504 130.837 C 279.872 129.873,279.770 21.060,280.400 19.838 C 280.739 19.181,282.295 17.232,284.475 14.737 C 284.728 14.447,285.238 13.855,285.610 13.419 C 286.339 12.565,288.409 10.737,288.647 10.737 C 288.727 10.737,288.850 10.950,288.920 11.211 M284.632 12.327 C 284.632 12.739,284.465 12.933,283.914 13.163 C 283.519 13.328,283.148 13.584,283.089 13.732 C 283.029 13.879,282.973 13.692,282.964 13.316 C 282.953 12.875,283.048 12.632,283.231 12.632 C 283.386 12.632,283.685 12.442,283.895 12.211 C 284.407 11.645,284.632 11.680,284.632 12.327 M101.789 12.521 C 101.789 13.052,101.143 13.438,100.811 13.106 C 100.613 12.908,100.643 12.757,100.948 12.421 C 101.398 11.923,101.789 11.970,101.789 12.521 M282.316 14.842 C 282.316 15.201,281.966 15.437,281.689 15.266 C 281.558 15.185,281.573 14.992,281.731 14.741 C 281.998 14.313,282.316 14.368,282.316 14.842 M99.576 14.789 C 99.569 15.343,99.178 15.715,98.959 15.375 C 98.832 15.177,98.841 14.970,98.985 14.797 C 99.271 14.452,99.580 14.449,99.576 14.789 M281.167 16.353 C 281.027 16.912,281.001 16.924,280.732 16.556 C 280.510 16.251,280.501 16.077,280.692 15.772 C 281.032 15.227,281.352 15.618,281.167 16.353 M98.947 16.849 C 99.459 17.443,99.942 17.765,100.526 17.900 C 101.703 18.173,276.121 18.169,277.785 17.897 C 279.470 17.621,279.657 17.808,279.249 19.362 C 278.802 21.066,278.794 130.593,279.241 131.663 C 279.531 132.357,280.758 133.474,281.230 133.474 C 281.950 133.474,281.408 134.620,280.053 135.961 L 278.632 137.368 187.409 137.422 C 128.335 137.457,96.051 137.403,95.802 137.270 C 95.290 136.996,95.132 135.838,95.498 135.047 C 95.821 134.349,95.803 22.890,95.479 20.781 C 95.225 19.120,95.462 18.466,96.791 17.168 C 98.222 15.771,98.042 15.798,98.947 16.849 M79.400 17.966 C 78.514 18.909,78.526 18.089,78.526 78.423 C 78.526 143.523,78.400 137.731,79.840 138.807 C 80.738 139.476,82.344 138.653,83.132 137.119 C 83.484 136.434,83.436 20.438,83.084 19.268 C 82.598 17.656,80.416 16.885,79.400 17.966 M81.669 18.871 C 81.909 19.176,82.204 19.768,82.325 20.186 C 82.665 21.361,82.507 136.377,82.165 136.973 C 81.624 137.916,80.448 138.228,79.816 137.596 L 79.263 137.043 79.209 78.607 C 79.156 21.077,79.162 20.157,79.566 19.243 C 80.072 18.098,80.941 17.945,81.669 18.871 M98.737 19.562 C 97.540 19.736,96.760 20.251,96.334 21.149 C 95.792 22.292,95.826 134.729,96.368 135.205 C 97.754 136.420,89.229 136.316,186.842 136.316 C 285.096 136.316,275.953 136.439,277.421 135.097 L 277.895 134.663 277.895 78.612 C 277.895 24.223,277.883 22.534,277.499 21.649 C 276.949 20.380,276.274 19.831,274.960 19.581 C 273.706 19.344,100.373 19.325,98.737 19.562 M274.922 21.286 C 276.316 21.772,276.211 17.081,276.211 78.719 L 276.211 134.722 275.737 134.993 C 275.056 135.381,98.925 135.394,98.053 135.005 L 97.474 134.747 97.474 78.752 C 97.474 18.236,97.400 21.881,98.626 21.347 C 99.482 20.974,273.855 20.914,274.922 21.286 M58.263 59.892 C 57.651 60.314,57.474 60.576,57.474 61.060 C 57.474 61.860,57.127 61.870,56.952 61.074 C 56.359 58.372,52.794 59.609,52.482 62.625 C 52.261 64.765,49.684 65.223,49.684 63.122 C 49.684 60.629,48.227 59.226,46.543 60.097 C 46.006 60.374,45.872 60.364,45.141 59.991 C 43.437 59.123,41.385 60.798,40.521 63.762 C 40.365 64.298,39.983 65.447,39.673 66.316 C 38.976 68.269,39.061 69.934,39.983 72.382 C 40.318 73.272,40.700 74.344,40.830 74.764 C 41.251 76.113,42.960 76.939,44.236 76.410 C 45.029 76.082,45.021 75.578,44.183 73.158 C 43.349 70.748,43.383 66.149,44.246 64.613 C 45.096 63.102,45.263 63.719,45.263 68.363 L 45.263 71.621 45.979 72.337 C 46.698 73.056,47.778 73.286,48.727 72.922 C 49.307 72.700,49.684 71.421,49.684 69.681 C 49.684 67.901,49.760 67.789,50.978 67.789 C 52.255 67.789,52.421 68.042,52.421 69.979 C 52.421 72.514,53.410 73.480,55.638 73.124 C 56.973 72.911,57.043 72.651,57.129 67.668 C 57.208 63.106,57.362 62.048,57.963 61.932 C 58.157 61.894,58.316 61.952,58.316 62.060 C 58.316 62.169,58.576 62.626,58.895 63.076 L 59.474 63.895 59.468 67.789 L 59.463 71.684 58.679 73.327 C 57.712 75.355,57.677 75.991,58.506 76.481 C 60.933 77.915,63.204 74.210,63.512 68.316 C 63.796 62.886,60.828 58.124,58.263 59.892 M14.459 60.169 C 14.133 60.529,13.600 62.396,13.365 64.000 C 13.169 65.336,12.975 65.401,12.078 64.432 C 10.864 63.121,10.405 62.947,8.168 62.948 C 4.986 62.949,3.955 64.092,4.488 67.030 C 4.708 68.245,4.702 68.277,4.126 68.773 C 3.022 69.722,3.267 71.501,4.678 72.779 C 5.341 73.380,11.023 73.447,12.623 72.872 C 13.628 72.511,13.826 72.497,14.196 72.756 C 15.044 73.349,16.537 73.137,17.474 72.291 L 18.317 71.529 19.297 72.332 C 20.787 73.553,23.462 73.597,24.529 72.418 C 24.893 72.015,24.907 72.017,25.503 72.519 C 26.559 73.407,31.881 73.593,33.115 72.784 C 35.692 71.096,35.230 64.854,32.421 63.407 C 30.408 62.370,26.162 63.217,25.148 64.857 C 24.967 65.151,24.480 64.726,24.062 63.910 C 23.728 63.259,23.028 62.315,22.167 61.358 C 21.552 60.673,20.694 60.692,19.366 61.421 L 18.311 62.000 17.281 60.895 C 16.139 59.669,15.143 59.413,14.459 60.169 M55.571 61.259 C 56.497 61.755,56.922 71.074,56.053 71.837 C 54.705 73.020,53.684 72.192,53.684 69.916 C 53.684 67.662,53.283 67.263,51.017 67.263 C 48.887 67.263,48.632 67.556,48.632 69.998 C 48.632 71.966,48.444 72.292,47.461 72.031 L 46.842 71.866 46.710 69.670 C 46.328 63.324,46.518 61.584,47.610 61.424 C 48.321 61.320,48.632 61.790,48.632 62.972 C 48.632 63.964,49.167 64.778,50.001 65.053 C 51.683 65.608,53.684 64.582,53.684 63.164 C 53.684 61.697,54.621 60.751,55.571 61.259 M16.400 62.054 C 16.561 62.444,16.622 64.122,16.583 67.157 L 16.526 71.679 15.911 71.973 C 14.691 72.558,14.638 72.370,14.575 67.212 C 14.512 62.031,14.606 61.474,15.548 61.474 C 16.017 61.474,16.216 61.609,16.400 62.054 M22.191 62.921 C 22.895 64.044,23.017 64.750,22.613 65.368 C 21.682 66.788,21.976 70.284,23.081 70.936 L 23.848 71.389 23.253 72.010 C 22.580 72.713,21.802 72.812,20.847 72.318 C 20.080 71.922,20.036 71.769,19.801 68.671 C 19.671 66.955,19.498 65.955,19.277 65.640 C 18.751 64.889,18.877 64.048,19.676 62.958 C 20.599 61.701,21.418 61.689,22.191 62.921 M61.957 64.211 C 62.415 65.850,62.361 70.892,61.870 72.316 C 61.543 73.262,60.453 73.699,60.391 72.909 C 60.318 71.987,60.478 63.036,60.570 62.883 C 60.933 62.275,61.592 62.906,61.957 64.211 M42.941 64.947 C 42.941 65.526,42.804 66.568,42.636 67.263 C 42.234 68.927,42.242 70.006,42.670 72.088 C 43.106 74.207,43.005 74.641,42.177 74.211 C 41.644 73.935,40.729 70.560,40.606 68.421 C 40.526 67.019,41.559 63.598,42.081 63.538 C 42.802 63.454,42.941 63.681,42.941 64.947 M10.668 64.959 C 12.028 66.431,12.005 66.368,12.196 69.158 C 12.423 72.471,12.252 72.616,8.211 72.540 C 5.812 72.494,5.148 72.279,4.832 71.447 C 4.381 70.260,4.579 69.779,5.968 68.692 L 6.563 68.227 6.128 67.065 C 4.924 63.847,8.226 62.315,10.668 64.959 M31.339 64.122 C 34.411 65.654,34.808 70.778,31.968 72.227 C 30.668 72.890,27.441 72.761,26.646 72.014 C 26.061 71.464,24.712 69.146,24.526 68.369 C 24.008 66.214,29.132 63.021,31.339 64.122 M7.062 65.880 C 6.995 65.988,7.042 66.139,7.166 66.216 C 7.466 66.401,8.421 66.153,8.421 65.891 C 8.421 65.628,7.223 65.619,7.062 65.880 M28.764 66.460 C 27.201 67.279,27.168 70.280,28.718 70.702 C 30.420 71.166,31.270 70.699,31.561 69.142 C 31.929 67.172,30.330 65.640,28.764 66.460 M30.593 67.789 C 30.688 67.874,30.735 68.311,30.699 68.758 C 30.580 70.201,28.896 70.336,28.616 68.925 C 28.388 67.775,29.727 67.006,30.593 67.789 M6.953 68.838 C 6.459 69.144,6.924 70.477,7.608 70.715 C 8.855 71.150,9.886 70.042,8.953 69.268 C 8.537 68.923,7.261 68.648,6.953 68.838 M12.438 82.334 C 8.507 83.105,8.002 94.755,11.853 95.811 C 14.813 96.623,18.034 95.350,18.921 93.017 C 19.264 92.115,18.880 85.504,18.430 84.567 C 17.504 82.636,15.225 81.787,12.438 82.334 M29.789 82.318 C 28.479 82.599,28.073 83.028,25.789 86.549 C 25.558 86.907,25.073 87.545,24.713 87.968 C 23.830 89.003,23.437 89.817,23.265 90.968 C 23.061 92.328,22.930 92.484,22.220 92.214 C 20.794 91.672,19.936 92.249,19.686 93.917 C 19.352 96.142,22.390 96.544,23.288 94.394 C 23.617 93.607,23.538 93.625,25.552 93.884 C 26.673 94.029,27.242 94.237,28.078 94.809 C 29.790 95.980,30.461 96.006,31.682 94.949 C 32.867 93.923,33.322 93.939,34.549 95.048 C 36.053 96.407,39.651 96.526,41.453 95.277 C 42.385 94.631,42.526 94.622,43.535 95.133 C 46.165 96.466,48.000 95.145,48.000 91.919 C 48.000 91.514,48.095 91.124,48.211 91.053 C 48.339 90.973,48.421 91.300,48.421 91.894 C 48.421 94.265,49.127 95.412,50.754 95.687 C 52.555 95.991,53.641 94.638,53.714 92.000 C 53.740 91.062,53.774 91.191,53.893 92.676 C 54.079 94.985,54.936 95.988,56.441 95.656 C 58.149 95.279,58.526 94.510,58.526 91.409 C 58.526 86.105,57.794 85.445,52.105 85.630 C 51.526 85.649,49.316 85.645,47.194 85.622 L 43.335 85.579 42.880 84.947 C 41.138 82.529,40.108 81.984,37.614 82.160 C 34.645 82.370,33.078 84.927,34.138 87.833 C 34.701 89.376,34.426 89.897,33.230 89.555 C 32.391 89.314,32.211 88.794,32.361 87.046 C 32.630 83.901,31.563 81.938,29.789 82.318 M16.713 84.492 C 18.630 85.748,18.867 91.352,17.085 93.319 C 15.338 95.248,15.482 95.158,14.146 95.158 C 12.188 95.158,11.682 94.890,11.028 93.508 C 9.976 91.289,10.098 85.811,11.227 84.512 C 11.725 83.939,13.081 83.734,13.514 84.166 C 13.686 84.339,13.878 84.299,14.240 84.014 C 14.787 83.584,15.554 83.732,16.713 84.492 M30.837 84.200 C 31.063 84.637,31.158 85.455,31.158 86.964 L 31.158 89.107 31.895 89.922 C 32.300 90.371,32.632 90.826,32.632 90.934 C 32.632 91.258,33.740 91.289,34.526 90.987 C 35.906 90.457,36.097 89.681,35.345 87.669 C 34.634 85.769,35.162 84.158,36.589 83.876 C 37.506 83.695,37.540 83.750,37.674 85.639 C 37.785 87.200,37.810 87.263,38.316 87.263 C 38.813 87.263,38.845 87.193,38.896 86.000 C 38.980 84.039,39.077 83.789,39.754 83.789 C 41.065 83.789,42.253 86.212,41.577 87.508 C 40.984 88.645,41.156 89.661,42.002 90.014 C 43.505 90.642,43.947 90.208,44.051 88.000 C 44.105 86.853,44.113 86.840,44.938 86.570 C 46.114 86.186,49.810 86.186,50.737 86.570 C 51.361 86.829,51.635 86.833,52.526 86.600 C 53.821 86.260,55.388 86.238,56.071 86.549 C 57.477 87.189,57.388 93.895,55.974 93.895 C 55.559 93.895,55.158 92.408,55.158 90.868 C 55.158 89.376,55.127 89.274,54.510 88.756 C 53.122 87.587,52.524 88.216,52.127 91.263 C 51.726 94.345,51.713 94.373,50.937 93.929 C 50.279 93.552,50.197 93.305,49.983 91.053 C 49.814 89.279,49.674 88.976,48.872 88.644 C 47.439 88.050,46.937 88.801,46.418 92.316 C 46.349 92.779,46.245 93.324,46.185 93.526 C 46.038 94.027,45.147 94.000,44.478 93.474 C 43.527 92.725,41.067 93.274,40.739 94.308 C 40.538 94.943,39.813 95.158,37.878 95.158 L 36.205 95.158 35.208 94.110 C 34.659 93.534,33.886 92.847,33.489 92.584 L 32.768 92.105 31.633 93.297 C 30.335 94.660,30.186 94.669,28.291 93.503 C 27.691 93.134,26.766 92.780,26.196 92.702 C 24.296 92.442,23.533 90.655,24.888 89.641 C 26.367 88.534,26.475 88.406,26.600 87.622 C 26.672 87.174,26.908 86.647,27.126 86.450 C 27.343 86.254,27.689 85.720,27.894 85.265 C 28.157 84.682,28.523 84.310,29.134 84.008 C 30.274 83.443,30.456 83.464,30.837 84.200 M13.556 85.098 C 11.878 87.464,12.437 93.333,14.284 92.747 C 15.080 92.494,15.312 91.812,15.443 89.330 L 15.567 86.977 14.878 85.976 C 14.119 84.874,13.844 84.692,13.556 85.098 M37.000 90.250 C 36.160 90.470,37.111 93.018,38.168 93.379 C 39.526 93.843,40.514 91.088,39.284 90.266 C 39.037 90.101,37.610 90.091,37.000 90.250 M60.695 92.252 C 59.796 92.686,59.491 94.649,60.211 95.368 C 61.076 96.234,63.158 95.617,63.158 94.495 C 63.158 92.733,61.959 91.642,60.695 92.252 M311.995 121.018 C 311.593 121.346,311.102 121.703,310.905 121.810 C 310.576 121.989,309.615 123.032,306.669 126.406 C 306.069 127.092,305.056 128.229,304.416 128.932 C 303.777 129.635,302.973 130.589,302.630 131.053 C 302.287 131.516,301.642 132.257,301.197 132.700 C 300.751 133.144,300.276 133.769,300.141 134.091 C 300.006 134.413,299.596 134.927,299.230 135.235 C 297.330 136.833,298.523 139.572,300.847 138.946 C 301.769 138.698,302.120 138.394,304.000 136.212 C 304.521 135.607,305.374 134.660,305.895 134.108 C 306.416 133.556,307.363 132.506,308.000 131.774 C 308.637 131.043,309.774 129.768,310.526 128.940 C 311.862 127.472,313.530 125.455,314.465 124.178 C 315.835 122.306,313.726 119.607,311.995 121.018 M313.560 121.947 C 314.243 123.004,314.191 123.453,313.257 124.549 C 312.774 125.115,312.098 125.911,311.756 126.316 C 310.434 127.881,307.992 130.682,305.316 133.702 C 303.782 135.434,302.526 136.948,302.526 137.067 C 302.526 137.384,301.182 137.895,300.347 137.895 C 298.898 137.895,298.726 136.687,299.982 135.339 C 300.224 135.080,300.421 134.788,300.421 134.691 C 300.421 134.593,300.871 134.060,301.421 133.506 C 301.971 132.952,302.800 132.041,303.263 131.480 C 303.726 130.920,304.958 129.491,306.000 128.306 C 307.042 127.121,308.640 125.294,309.551 124.245 C 310.582 123.058,311.535 122.180,312.077 121.917 C 313.182 121.381,313.194 121.381,313.560 121.947 M291.040 122.817 C 290.962 123.126,290.716 123.478,290.492 123.597 C 290.268 123.717,289.997 124.046,289.890 124.329 C 289.782 124.611,289.559 124.842,289.394 124.842 C 289.229 124.842,288.995 125.126,288.874 125.474 C 288.753 125.821,288.554 126.105,288.432 126.105 C 287.869 126.105,288.531 124.676,289.134 124.590 C 289.438 124.546,289.599 124.350,289.643 123.969 C 289.681 123.647,289.867 123.370,290.085 123.313 C 290.310 123.254,290.519 122.931,290.602 122.515 C 290.699 122.030,290.809 121.883,290.962 122.035 C 291.083 122.156,291.118 122.507,291.040 122.817 M288.000 126.627 C 288.000 126.798,287.778 127.083,287.506 127.261 C 287.234 127.439,286.902 127.952,286.768 128.401 C 286.555 129.111,286.404 129.253,285.610 129.487 C 284.913 129.693,284.631 129.911,284.422 130.405 C 284.152 131.043,284.146 131.045,284.054 130.538 C 283.996 130.222,284.089 129.929,284.296 129.778 C 284.480 129.643,284.632 129.442,284.632 129.332 C 284.632 129.222,284.907 128.928,285.244 128.679 C 285.581 128.430,285.966 127.897,286.098 127.495 C 286.400 126.582,288.000 125.851,288.000 126.627 M283.535 131.499 C 282.778 132.451,282.027 133.058,281.838 132.870 C 281.534 132.566,281.854 132.211,282.433 132.211 C 282.841 132.211,282.947 132.102,282.947 131.684 C 282.947 131.295,283.059 131.158,283.377 131.158 C 283.744 131.158,283.767 131.207,283.535 131.499 M394.690 134.961 C 393.855 135.448,393.799 136.793,394.564 137.974 L 395.263 139.053 395.263 142.983 C 395.263 145.144,395.216 146.954,395.158 147.006 C 394.568 147.527,393.886 147.335,393.477 146.533 C 392.951 145.502,392.132 145.053,390.779 145.053 C 388.185 145.053,388.000 144.745,388.000 140.424 C 388.000 136.150,387.575 135.158,385.743 135.158 C 384.110 135.158,383.933 135.894,384.041 142.246 C 384.131 147.596,384.306 148.438,385.409 148.858 C 386.053 149.102,392.012 149.020,392.758 148.755 C 393.402 148.528,393.811 149.051,393.958 150.290 C 394.261 152.847,396.280 153.086,396.848 150.632 C 397.120 149.456,397.105 137.145,396.831 136.156 C 396.649 135.502,395.566 134.628,395.080 134.743 C 395.065 134.747,394.890 134.845,394.690 134.961 M380.972 135.387 C 380.664 135.629,380.259 136.126,380.071 136.492 C 379.884 136.858,379.521 137.409,379.264 137.716 C 378.961 138.080,378.558 139.263,378.110 141.105 L 377.422 143.936 378.085 146.757 L 378.748 149.579 380.108 151.000 C 381.614 152.574,381.889 152.677,382.422 151.864 C 383.014 150.960,382.914 149.555,382.145 147.976 C 381.090 145.811,381.166 142.945,382.368 139.574 C 382.637 138.818,383.019 137.968,383.218 137.685 C 383.715 136.975,383.685 136.831,382.826 135.827 C 381.968 134.825,381.751 134.774,380.972 135.387 M326.399 135.459 C 325.600 135.807,325.106 136.480,324.107 138.586 L 323.336 140.209 323.984 141.340 C 324.573 142.370,324.632 142.641,324.633 144.341 C 324.635 147.139,325.341 148.842,326.500 148.842 C 327.155 148.842,328.182 147.836,328.416 146.965 C 328.610 146.246,329.358 145.280,329.557 145.493 C 329.602 145.540,329.988 146.000,330.415 146.514 C 332.346 148.838,335.964 149.839,337.747 148.543 C 339.959 146.935,340.034 146.920,341.284 147.837 C 343.775 149.665,345.053 148.463,345.053 144.289 C 345.053 142.711,345.113 142.316,345.356 142.316 C 345.801 142.316,345.863 142.499,346.088 144.475 C 346.534 148.406,348.939 150.141,350.316 147.527 C 350.904 146.411,351.372 146.262,352.083 146.964 C 354.523 149.374,358.850 149.778,361.111 147.806 C 362.256 146.807,362.613 146.803,363.717 147.774 C 366.248 150.002,370.447 149.209,371.989 146.212 C 373.220 143.822,372.245 139.724,370.200 138.687 C 368.236 137.692,364.555 138.363,363.215 139.962 C 362.485 140.833,362.084 140.263,361.893 138.081 C 361.694 135.819,361.224 135.315,359.405 135.411 C 358.314 135.469,358.189 135.529,357.756 136.211 C 356.749 137.792,356.413 138.105,355.721 138.106 C 354.197 138.109,352.000 139.293,352.000 140.112 C 352.000 141.040,350.862 141.294,350.562 140.433 C 350.343 139.804,349.229 138.969,347.804 138.365 C 346.454 137.793,340.842 138.759,340.842 139.564 C 340.842 140.200,339.388 140.191,339.372 139.555 C 339.370 139.484,338.977 139.155,338.499 138.823 C 337.293 137.987,335.410 138.010,332.709 138.891 C 330.189 139.713,329.456 139.271,330.454 137.532 C 331.452 135.793,328.775 134.425,326.399 135.459 M329.044 136.250 C 329.563 136.807,329.570 136.920,329.131 137.591 C 328.800 138.096,328.805 139.177,329.143 140.010 C 329.224 140.209,328.993 140.702,328.552 141.273 C 327.866 142.161,327.824 142.313,327.756 144.143 C 327.590 148.611,325.487 148.331,325.464 143.838 C 325.456 142.330,325.366 141.830,324.961 141.055 L 324.467 140.110 325.278 138.496 C 326.097 136.868,326.830 136.124,327.792 135.945 C 328.080 135.891,328.383 135.834,328.465 135.818 C 328.548 135.802,328.808 135.997,329.044 136.250 M386.484 136.253 C 386.660 136.429,386.737 137.562,386.738 139.989 C 386.739 143.826,386.915 144.831,387.691 145.442 C 387.977 145.666,388.211 145.952,388.211 146.076 C 388.211 146.200,388.400 146.402,388.632 146.526 C 389.205 146.833,389.160 147.093,388.474 147.439 C 386.769 148.297,385.261 147.835,384.842 146.328 C 384.525 145.185,384.569 137.002,384.895 136.591 C 385.349 136.018,386.092 135.860,386.484 136.253 M360.133 136.582 C 360.264 136.667,360.440 137.623,360.525 138.706 C 360.610 139.789,360.744 140.917,360.823 141.212 C 361.139 142.393,362.867 142.167,363.628 140.845 C 364.636 139.094,368.586 138.594,370.364 139.993 C 371.392 140.801,371.828 144.418,371.099 146.092 C 370.248 148.045,364.616 147.969,363.456 145.988 C 362.472 144.310,361.451 144.315,360.608 146.001 C 360.034 147.152,359.556 147.357,357.149 147.483 C 353.373 147.682,352.325 146.857,352.473 143.804 C 352.648 140.187,353.208 139.420,355.771 139.287 C 357.509 139.196,357.968 138.866,358.230 137.523 C 358.412 136.589,359.395 136.103,360.133 136.582 M381.895 136.947 C 381.895 137.121,381.800 137.263,381.684 137.263 C 381.568 137.263,381.474 137.121,381.474 136.947 C 381.474 136.774,381.568 136.632,381.684 136.632 C 381.800 136.632,381.895 136.774,381.895 136.947 M396.222 148.737 L 396.128 149.368 396.012 148.754 C 395.947 148.416,395.939 145.716,395.993 142.754 L 396.092 137.368 396.204 142.737 C 396.265 145.689,396.274 148.389,396.222 148.737 M338.047 139.696 C 339.055 140.356,339.998 143.174,339.626 144.416 C 338.786 147.224,336.626 148.122,333.013 147.165 C 330.146 146.406,329.721 141.486,332.387 139.929 C 333.715 139.153,337.012 139.017,338.047 139.696 M380.843 143.789 C 380.855 146.163,380.860 148.320,380.854 148.583 C 380.841 149.121,379.907 149.068,379.452 148.504 C 378.305 147.079,378.790 139.526,380.041 139.321 C 380.809 139.195,380.819 139.248,380.843 143.789 M348.429 139.689 C 349.507 140.246,349.895 141.352,349.895 143.869 C 349.895 146.497,349.824 146.737,349.045 146.737 C 348.019 146.737,347.579 145.912,347.579 143.990 C 347.579 142.421,347.552 142.331,346.931 141.808 C 345.326 140.458,344.213 141.487,344.211 144.323 C 344.211 145.992,344.202 146.020,343.556 146.401 L 342.901 146.788 342.240 146.127 C 340.885 144.772,341.388 140.178,342.950 139.643 C 344.052 139.266,347.671 139.296,348.429 139.689 M355.458 141.782 L 354.599 142.296 354.737 143.369 C 355.101 146.208,358.038 146.316,358.269 143.498 C 358.435 141.469,357.218 140.726,355.458 141.782 M366.687 141.435 C 365.098 141.618,364.990 144.334,366.507 145.947 C 367.204 146.689,367.199 146.689,368.318 145.637 C 370.408 143.670,369.418 141.120,366.687 141.435 M333.684 141.895 C 332.664 142.915,333.865 146.526,335.224 146.526 C 336.662 146.526,337.867 142.957,336.776 141.931 C 336.108 141.304,334.296 141.282,333.684 141.895 M335.958 142.241 C 336.708 142.442,336.557 144.197,335.756 144.579 C 335.018 144.932,334.163 144.618,334.067 143.959 C 333.844 142.418,334.476 141.844,335.958 142.241 M368.224 142.323 C 369.117 142.801,368.701 144.544,367.643 144.756 C 366.425 144.999,365.287 142.561,366.474 142.250 C 367.146 142.075,367.812 142.103,368.224 142.323 M357.474 143.049 C 357.474 143.794,356.796 144.257,356.222 143.902 C 355.592 143.513,355.980 142.316,356.737 142.316 C 357.438 142.316,357.474 142.351,357.474 143.049 M96.316 149.768 C 93.663 150.607,93.144 151.772,94.746 153.296 L 95.597 154.105 186.647 154.105 C 268.353 154.105,277.778 154.072,278.478 153.779 C 281.063 152.699,280.815 150.896,277.947 149.921 L 276.630 149.474 186.894 149.488 C 115.152 149.499,96.989 149.555,96.316 149.768 M277.726 150.551 C 279.453 150.915,280.047 152.081,278.895 152.844 C 278.115 153.361,96.406 153.439,95.421 152.923 C 94.126 152.246,94.515 150.928,96.122 150.552 C 97.392 150.254,276.313 150.253,277.726 150.551 M343.570 157.936 C 343.285 158.039,342.758 158.427,342.398 158.798 C 342.038 159.170,341.343 159.711,340.852 160.000 C 339.232 160.956,339.265 161.979,340.963 163.474 C 342.076 164.453,342.303 165.157,342.311 167.642 C 342.319 170.335,343.230 171.319,344.988 170.532 C 346.625 169.799,346.633 169.768,346.623 164.140 L 346.615 159.151 346.077 158.613 C 345.445 157.981,344.299 157.671,343.570 157.936 M326.587 158.093 C 325.334 158.296,324.916 158.770,324.542 160.413 C 323.798 163.685,323.955 167.410,324.916 169.315 C 326.218 171.893,332.034 171.569,333.412 168.842 C 334.177 167.327,333.653 159.962,332.704 158.909 C 331.985 158.110,328.964 157.707,326.587 158.093 M350.421 158.125 C 348.696 158.649,347.908 160.794,349.078 161.778 C 350.285 162.794,351.971 162.720,352.638 161.623 C 352.974 161.071,353.056 161.027,353.175 161.338 C 353.363 161.827,353.136 163.446,352.866 163.536 C 352.361 163.704,350.146 166.129,349.421 167.307 C 347.611 170.249,349.010 171.361,354.172 171.083 C 362.390 170.641,362.316 170.671,362.316 167.708 C 362.316 166.861,362.425 165.854,362.559 165.470 L 362.802 164.772 363.191 165.251 C 363.502 165.636,363.579 166.097,363.579 167.584 C 363.579 169.394,363.594 169.449,364.227 169.981 C 366.232 171.668,368.000 170.572,368.000 167.642 C 368.000 165.750,368.337 164.573,368.650 165.373 C 368.739 165.602,368.819 166.597,368.827 167.585 C 368.854 170.868,370.462 171.765,372.794 169.799 L 373.482 169.219 373.344 166.346 C 373.189 163.139,373.043 162.689,371.710 161.317 C 370.680 160.257,368.463 159.982,367.704 160.820 C 367.131 161.453,366.193 161.489,365.640 160.900 C 365.180 160.411,365.096 160.401,361.942 160.445 L 358.715 160.490 357.612 159.401 C 356.145 157.953,352.889 157.375,350.421 158.125 M355.858 159.083 C 356.110 159.390,356.671 160.009,357.105 160.460 C 358.167 161.562,358.152 162.190,357.039 163.273 C 356.568 163.731,355.992 164.437,355.760 164.842 C 355.527 165.247,354.944 165.853,354.466 166.188 L 353.595 166.796 354.295 167.381 C 354.947 167.925,356.735 168.421,358.044 168.421 C 359.008 168.421,359.297 167.180,358.843 164.984 C 358.451 163.087,358.568 162.728,359.779 162.110 C 360.710 161.636,364.758 161.610,365.624 162.073 C 366.278 162.423,368.124 162.371,368.878 161.981 C 370.876 160.948,371.789 162.276,371.789 166.212 L 371.789 169.062 371.247 169.309 C 370.260 169.759,370.014 169.366,369.888 167.136 C 369.620 162.404,366.737 162.683,366.737 167.441 C 366.737 169.170,366.543 169.500,365.632 169.325 C 364.929 169.190,365.044 169.526,364.862 167.074 C 364.713 165.082,364.677 164.965,364.034 164.390 C 362.433 162.959,361.708 163.907,361.109 168.211 L 360.947 169.368 359.474 169.372 C 358.663 169.374,357.435 169.540,356.745 169.741 C 354.715 170.331,351.145 170.255,350.391 169.607 C 349.570 168.900,349.938 167.701,351.444 166.170 C 352.039 165.566,352.682 164.901,352.873 164.693 C 353.063 164.486,353.452 164.122,353.736 163.886 C 355.976 162.024,354.530 159.768,351.875 160.983 C 350.664 161.538,350.396 161.500,350.105 160.736 C 349.522 159.204,350.502 158.534,353.332 158.529 C 355.315 158.526,355.419 158.549,355.858 159.083 M331.513 159.316 C 333.738 161.676,333.466 168.419,331.102 169.542 C 330.106 170.014,326.824 170.038,326.167 169.577 C 324.919 168.703,324.808 161.063,326.017 159.211 C 326.537 158.413,330.738 158.493,331.513 159.316 M344.954 159.592 C 345.497 160.642,345.324 168.756,344.749 169.175 C 343.638 169.987,343.306 169.458,343.131 166.593 C 343.048 165.225,342.972 164.026,342.963 163.929 C 342.955 163.832,342.417 163.244,341.769 162.621 C 340.441 161.345,340.428 161.170,341.615 160.426 C 342.080 160.134,342.783 159.682,343.177 159.422 C 344.143 158.786,344.558 158.825,344.954 159.592 M327.717 160.806 C 327.140 161.444,327.209 166.688,327.805 167.445 C 329.456 169.544,330.892 166.149,330.179 161.832 C 329.976 160.601,328.470 159.974,327.717 160.806 M328.921 161.921 C 329.345 164.042,328.960 167.594,328.401 166.711 C 328.018 166.107,328.223 161.263,328.632 161.263 C 328.718 161.263,328.849 161.559,328.921 161.921 M357.641 166.518 C 357.586 166.996,357.473 167.059,356.581 167.117 C 354.936 167.222,354.759 166.930,355.987 166.134 C 356.568 165.758,357.108 165.345,357.187 165.215 C 357.387 164.892,357.720 165.845,357.641 166.518 M335.684 167.519 C 333.664 168.008,334.173 170.947,336.277 170.947 C 336.728 170.947,338.316 169.542,338.316 169.143 C 338.316 168.789,337.815 168.196,337.188 167.808 C 336.457 167.356,336.401 167.346,335.684 167.519 M375.136 167.849 C 373.773 168.765,374.498 170.947,376.165 170.947 C 377.339 170.947,378.560 169.285,377.987 168.467 C 377.230 167.386,376.168 167.156,375.136 167.849 M336.692 169.507 C 336.255 169.944,336.217 169.947,335.685 169.599 C 335.047 169.181,335.083 168.844,335.806 168.480 C 336.647 168.057,337.339 168.860,336.692 169.507 M376.825 168.579 C 377.246 168.923,377.254 168.979,376.942 169.421 C 376.524 170.014,375.973 170.026,375.456 169.454 C 374.751 168.675,375.981 167.889,376.825 168.579 M149.188 171.574 C 148.304 171.855,147.787 172.395,147.248 173.603 C 146.984 174.196,146.623 174.736,146.446 174.803 C 146.269 174.871,145.926 175.315,145.684 175.790 L 145.243 176.654 145.885 177.838 C 146.438 178.859,146.527 179.242,146.529 180.616 C 146.533 183.479,147.097 184.900,148.369 185.251 C 150.207 185.759,151.119 184.177,151.190 180.358 L 151.221 178.632 151.371 180.842 C 151.569 183.761,151.876 184.469,153.153 184.957 C 155.038 185.676,155.915 184.854,156.203 182.096 C 156.434 179.880,156.550 179.579,157.173 179.579 C 157.783 179.579,158.013 179.990,158.207 181.428 C 158.568 184.098,160.372 185.474,163.514 185.474 C 166.555 185.474,167.240 185.051,167.505 183.008 C 167.704 181.477,167.877 181.310,168.298 182.244 C 169.432 184.761,169.807 185.123,171.277 185.123 C 172.772 185.123,173.229 184.386,173.538 181.474 L 173.617 180.737 173.651 181.519 C 173.674 182.058,173.813 182.370,174.098 182.522 C 174.326 182.644,174.614 183.122,174.738 183.583 C 175.206 185.322,178.330 185.823,178.833 184.239 C 178.999 183.717,179.820 183.989,180.526 184.800 C 181.176 185.547,183.007 185.669,184.496 185.065 C 185.614 184.611,185.661 184.609,186.348 184.975 C 187.414 185.544,191.413 185.637,192.417 185.117 C 194.466 184.054,195.049 176.904,193.186 175.684 C 191.736 174.733,187.065 174.789,186.022 175.769 L 185.546 176.216 184.510 175.178 C 183.940 174.607,183.253 173.848,182.984 173.491 C 182.026 172.222,180.871 172.588,179.567 174.574 C 178.923 175.556,178.350 175.687,176.630 175.246 C 173.907 174.549,170.412 175.077,168.809 176.428 C 168.121 177.009,167.789 177.183,167.789 176.963 C 167.789 175.577,165.366 174.775,162.105 175.083 C 159.717 175.308,152.885 175.188,152.158 174.908 C 151.467 174.643,151.456 174.579,151.997 174.003 C 153.461 172.445,151.577 170.815,149.188 171.574 M203.760 171.742 C 202.089 172.533,201.115 174.140,199.992 177.957 C 199.206 180.629,199.230 181.051,200.363 184.516 C 201.297 187.376,202.114 188.403,203.587 188.569 C 205.196 188.750,205.432 188.246,204.654 186.293 C 203.740 183.999,203.557 176.990,204.389 176.158 C 204.719 175.828,205.684 178.300,206.408 181.329 C 207.211 184.690,207.509 185.132,209.131 185.375 C 210.457 185.574,211.425 185.071,211.978 183.895 C 212.214 183.392,212.503 182.922,212.619 182.850 C 212.735 182.778,212.935 182.333,213.062 181.860 C 213.334 180.851,213.447 180.949,214.532 183.136 C 216.508 187.119,219.819 185.744,220.940 180.473 C 221.106 179.692,221.467 178.504,221.741 177.834 L 222.241 176.616 222.510 177.203 C 223.073 178.430,223.054 181.632,222.470 183.913 C 221.591 187.347,221.576 187.871,222.338 188.513 C 223.401 189.407,224.135 189.157,224.948 187.624 C 225.238 187.078,225.662 186.395,225.891 186.105 C 227.501 184.066,227.442 175.699,225.803 173.734 C 225.539 173.417,225.171 172.863,224.987 172.503 C 224.486 171.526,223.700 171.291,221.534 171.471 C 218.677 171.709,218.358 171.972,218.011 174.382 C 217.835 175.605,217.635 175.509,216.514 173.664 C 214.338 170.082,210.756 171.046,210.184 175.368 L 210.031 176.526 209.764 175.096 C 209.169 171.911,206.524 170.434,203.760 171.742 M223.975 173.216 C 224.126 173.763,224.319 174.445,224.404 174.731 C 224.494 175.037,224.766 175.301,225.061 175.370 C 225.890 175.566,226.148 176.868,226.043 180.316 C 225.942 183.608,225.770 184.257,224.872 184.722 C 224.049 185.147,224.079 185.338,224.103 179.745 L 224.124 174.963 223.167 174.757 C 221.540 174.407,221.030 174.963,220.523 177.638 C 220.102 179.856,218.787 183.448,218.063 184.357 C 217.312 185.299,215.417 182.976,214.874 180.449 C 214.274 177.660,213.316 177.795,212.095 180.842 C 210.750 184.197,210.304 184.777,209.346 184.412 C 207.956 183.884,207.709 183.396,207.146 180.071 C 206.726 177.595,206.135 175.995,205.067 174.442 C 204.310 173.342,204.274 173.040,204.837 172.531 C 206.121 171.369,208.087 173.020,208.842 175.895 C 209.766 179.409,210.280 179.217,211.379 174.947 C 212.174 171.857,214.420 171.907,215.808 175.046 C 216.348 176.267,217.660 178.145,217.879 178.010 C 218.027 177.918,218.350 176.573,218.625 174.901 C 218.810 173.772,219.658 172.842,220.503 172.842 C 220.875 172.842,221.288 172.733,221.421 172.600 C 221.678 172.343,223.116 172.028,223.482 172.149 C 223.602 172.189,223.824 172.669,223.975 173.216 M150.632 173.474 C 150.351 174.620,150.417 174.807,151.366 175.536 C 152.295 176.250,152.333 176.259,153.682 176.095 C 155.673 175.852,156.995 175.882,158.389 176.204 C 159.532 176.467,159.743 176.452,161.320 175.997 C 165.257 174.859,167.822 176.542,166.970 179.705 C 166.604 181.065,166.116 181.368,164.299 181.368 C 162.958 181.368,162.684 181.434,162.269 181.855 L 161.789 182.341 162.266 182.733 C 162.556 182.971,163.263 183.181,164.069 183.267 C 165.715 183.443,166.024 184.587,164.450 184.674 C 160.941 184.867,159.391 183.444,159.208 179.860 C 159.103 177.800,159.070 177.670,158.612 177.555 C 156.984 177.147,155.193 179.200,155.137 181.540 C 155.058 184.864,153.309 184.181,153.038 180.721 C 152.824 177.981,152.627 177.474,151.778 177.474 C 150.428 177.474,149.895 178.392,149.895 180.716 C 149.895 182.614,149.491 184.421,149.066 184.421 C 148.238 184.421,147.627 182.560,147.594 179.937 C 147.579 178.702,147.248 177.775,146.645 177.275 C 146.146 176.860,146.245 176.370,147.014 175.459 C 147.399 175.004,148.019 174.182,148.393 173.632 C 148.802 173.030,149.232 172.632,149.471 172.632 C 149.691 172.632,149.937 172.522,150.020 172.389 C 150.273 171.980,150.779 172.876,150.632 173.474 M182.937 174.937 C 184.433 176.433,184.491 176.758,183.447 177.802 L 182.684 178.565 182.783 180.102 C 182.848 181.121,183.038 181.939,183.346 182.531 C 184.030 183.843,183.813 184.634,182.773 184.625 C 181.134 184.610,180.613 183.613,180.436 180.161 C 180.326 177.999,180.253 177.633,179.851 177.231 L 179.392 176.772 179.938 175.807 C 181.037 173.864,181.051 173.849,181.601 173.987 C 181.884 174.058,182.485 174.485,182.937 174.937 M203.011 176.586 C 202.988 177.248,202.940 179.589,202.905 181.789 C 202.871 183.989,202.765 185.908,202.672 186.053 C 202.199 186.783,201.935 186.137,201.270 182.619 L 200.830 180.290 201.242 178.164 C 201.944 174.540,203.119 173.493,203.011 176.586 M176.510 176.140 C 177.767 176.739,178.106 177.638,178.102 180.360 C 178.099 182.839,178.042 183.032,177.237 183.338 C 176.544 183.602,176.001 182.620,175.999 181.098 C 175.996 178.984,175.183 177.684,173.863 177.684 C 172.910 177.684,172.423 178.674,172.422 180.612 C 172.421 182.411,171.667 183.879,171.020 183.341 C 170.282 182.729,170.105 181.947,170.105 179.298 L 170.105 176.680 170.817 176.342 C 172.486 175.550,175.080 175.458,176.510 176.140 M192.002 176.106 C 194.488 177.392,193.768 181.569,191.079 181.462 C 189.031 181.381,188.664 181.441,188.421 181.895 C 187.992 182.697,188.488 183.158,189.780 183.158 C 191.283 183.158,191.579 183.296,191.579 183.994 C 191.579 185.661,187.489 184.775,185.965 182.778 C 184.370 180.686,185.759 176.274,188.173 175.766 C 189.244 175.541,191.253 175.719,192.002 176.106 M161.981 178.210 C 161.711 179.286,162.431 179.762,163.907 179.485 C 164.765 179.324,164.997 178.929,164.664 178.197 C 164.306 177.412,162.179 177.423,161.981 178.210 M188.344 178.335 C 188.165 179.225,188.653 179.624,189.762 179.496 C 190.834 179.372,191.085 179.107,190.826 178.370 C 190.489 177.405,188.535 177.378,188.344 178.335 M223.698 186.579 C 223.493 188.143,223.158 188.354,223.158 186.919 C 223.158 185.761,223.254 185.474,223.641 185.474 C 223.764 185.474,223.786 185.911,223.698 186.579 M176.139 194.099 C 173.629 194.585,173.795 197.120,176.369 197.603 C 177.634 197.840,177.823 198.635,177.065 200.529 C 175.477 204.496,175.844 207.789,177.875 207.789 C 178.760 207.789,180.359 205.936,180.538 204.701 C 180.934 201.976,181.229 201.081,182.241 199.546 C 182.805 198.691,183.547 197.454,183.891 196.797 L 184.517 195.603 184.008 195.061 C 183.038 194.029,179.035 193.540,176.139 194.099 M161.708 194.486 C 159.578 195.544,158.552 201.880,160.001 205.024 C 161.218 207.664,162.733 208.443,165.603 207.904 C 169.410 207.190,170.923 200.091,168.150 195.955 C 166.925 194.127,163.845 193.425,161.708 194.486 M188.947 194.612 C 188.283 194.906,187.723 195.569,186.969 196.954 C 186.577 197.675,186.109 198.347,184.325 200.751 C 182.876 202.704,184.023 205.474,186.281 205.474 C 186.593 205.474,187.214 205.810,187.776 206.282 C 189.547 207.771,190.871 208.030,191.779 207.064 C 192.476 206.322,193.220 206.300,193.917 207.000 C 195.187 208.275,197.680 207.177,197.683 205.342 C 197.684 205.095,197.826 204.776,198.000 204.632 C 198.174 204.487,198.316 204.155,198.316 203.893 C 198.316 203.631,198.457 203.145,198.630 202.814 C 198.940 202.220,198.945 202.231,198.946 203.538 C 198.951 208.757,203.682 209.002,203.808 203.789 C 203.876 200.997,204.500 201.250,204.639 204.125 C 204.826 208.032,206.364 208.999,208.317 206.438 L 208.873 205.709 208.662 202.846 C 208.313 198.123,206.292 196.028,203.579 197.579 C 202.881 197.978,202.123 197.969,201.131 197.552 C 199.376 196.813,194.359 197.443,193.526 198.506 C 193.106 199.043,192.686 198.300,192.517 196.721 C 192.280 194.511,190.951 193.725,188.947 194.612 M182.312 195.075 C 182.777 195.262,183.158 195.489,183.158 195.581 C 183.158 195.990,182.136 197.895,181.513 198.647 C 181.136 199.101,180.678 199.995,180.495 200.632 C 180.313 201.268,179.984 202.085,179.765 202.446 C 179.547 202.808,179.306 203.557,179.230 204.112 C 179.137 204.784,178.896 205.337,178.505 205.771 L 177.918 206.421 177.481 205.989 C 176.833 205.351,176.902 204.350,177.738 202.211 C 178.145 201.168,178.546 199.984,178.628 199.579 C 178.711 199.174,178.917 198.623,179.087 198.354 C 179.525 197.663,179.225 197.398,177.358 196.825 C 174.962 196.090,174.621 195.467,176.316 194.916 C 177.236 194.616,181.445 194.729,182.312 195.075 M165.954 195.232 C 168.148 196.153,169.212 201.566,167.754 204.391 C 166.258 207.293,161.966 207.594,161.010 204.864 C 160.278 202.776,160.943 196.230,161.972 195.396 C 162.572 194.911,164.955 194.812,165.954 195.232 M191.533 198.411 C 191.596 201.602,191.718 201.961,192.802 202.171 C 193.570 202.320,194.105 201.801,194.105 200.908 C 194.105 199.637,194.606 198.793,195.509 198.542 C 196.578 198.245,200.046 198.254,201.556 198.558 C 202.473 198.742,203.098 198.740,204.170 198.549 C 206.941 198.056,207.319 198.533,207.415 202.640 C 207.487 205.744,207.177 206.554,206.128 206.012 C 205.442 205.657,205.269 204.979,205.265 202.626 C 205.263 200.895,204.914 200.211,204.035 200.211 C 202.806 200.211,202.105 201.619,202.105 204.090 C 202.105 204.791,201.354 205.916,200.981 205.773 C 200.361 205.535,200.000 204.468,200.000 202.870 C 200.000 201.505,199.935 201.219,199.539 200.850 C 198.699 200.067,197.596 200.447,197.278 201.629 C 197.159 202.072,196.920 202.621,196.748 202.849 C 196.575 203.077,196.431 203.528,196.428 203.853 C 196.408 205.610,195.011 206.292,193.968 205.053 C 193.308 204.269,192.639 204.371,191.665 205.403 C 190.817 206.302,190.469 206.286,188.526 205.263 C 187.647 204.800,186.639 204.421,186.286 204.421 C 183.348 204.421,184.076 201.450,187.060 201.263 L 188.737 201.158 187.789 200.842 C 186.561 200.433,186.525 200.073,187.524 198.199 C 188.862 195.689,189.255 195.338,190.632 195.422 L 191.474 195.474 191.533 198.411 M163.978 196.664 C 163.121 196.965,162.947 197.652,162.947 200.729 L 162.947 203.544 163.777 204.200 L 164.606 204.857 165.145 204.064 C 166.517 202.045,165.579 196.099,163.978 196.664 M170.854 204.468 C 170.129 205.503,170.692 207.443,171.787 207.684 C 173.061 207.964,174.246 206.131,173.599 204.881 C 173.070 203.858,171.452 203.614,170.854 204.468 M210.573 204.328 C 210.316 204.508,210.105 204.833,210.105 205.050 C 210.105 205.292,209.922 205.480,209.632 205.536 L 209.158 205.627 209.632 205.656 C 209.949 205.675,210.105 205.818,210.105 206.089 C 210.105 207.320,211.940 208.249,212.703 207.406 C 214.282 205.661,212.450 203.013,210.573 204.328 " stroke="none" fill="#b5a1a1" fill-rule="evenodd"></path><path id="path3" d="M80.034 19.694 C 79.627 20.588,79.687 136.706,80.095 137.044 C 80.525 137.401,81.250 137.114,81.486 136.495 C 81.608 136.172,81.684 113.821,81.684 78.082 L 81.684 20.191 81.167 19.675 C 80.516 19.024,80.338 19.027,80.034 19.694 M312.259 122.534 C 311.730 122.747,310.087 124.387,308.632 126.155 C 308.111 126.788,306.987 128.102,306.135 129.074 C 305.284 130.046,304.194 131.300,303.714 131.859 C 303.235 132.418,302.405 133.318,301.871 133.859 C 300.582 135.164,299.632 136.823,300.029 137.075 C 300.674 137.484,302.034 137.189,302.220 136.600 C 302.338 136.231,304.338 133.892,307.291 130.670 C 307.908 129.997,308.578 129.168,308.778 128.828 C 308.979 128.489,309.209 128.211,309.289 128.211 C 309.370 128.211,309.905 127.618,310.480 126.895 C 311.055 126.171,311.965 125.106,312.502 124.528 C 313.040 123.950,313.431 123.350,313.371 123.195 C 313.312 123.040,313.263 122.779,313.263 122.614 C 313.263 122.277,312.959 122.253,312.259 122.534 M96.842 150.876 C 95.387 151.108,95.340 151.140,95.408 151.841 C 95.466 152.431,95.570 152.530,96.287 152.678 C 97.388 152.905,277.903 152.785,278.368 152.556 C 278.924 152.285,278.852 151.251,278.263 151.027 C 277.808 150.855,97.919 150.705,96.842 150.876 " stroke="none" fill="#3f8b3f" fill-rule="evenodd"></path><path id="path4" d="M286.895 3.735 C 285.478 3.809,285.474 3.810,285.474 4.431 C 285.474 4.967,285.553 5.054,286.053 5.059 C 287.886 5.081,288.444 8.167,286.718 8.738 C 286.534 8.799,286.254 9.108,286.095 9.425 C 285.937 9.741,285.625 10.152,285.402 10.338 C 285.123 10.570,285.055 10.773,285.183 10.989 C 285.411 11.375,286.737 10.923,286.737 10.460 C 286.737 9.011,289.942 8.681,290.711 10.051 C 290.948 10.473,290.931 10.507,291.463 8.646 C 292.345 5.561,291.077 3.311,288.632 3.621 C 288.458 3.643,287.676 3.695,286.895 3.735 M108.162 4.481 C 107.127 4.853,106.922 5.017,106.718 5.637 C 106.587 6.034,106.253 6.556,105.976 6.797 C 105.483 7.226,105.299 7.789,105.653 7.789 C 106.379 7.789,107.104 7.284,107.349 6.606 C 107.694 5.651,108.516 5.291,110.748 5.119 C 112.328 4.997,112.421 4.963,112.421 4.495 C 112.421 3.826,110.007 3.818,108.162 4.481 M103.000 10.408 C 102.739 10.528,102.526 10.690,102.526 10.767 C 102.526 10.965,103.349 10.728,103.498 10.487 C 103.682 10.189,103.528 10.164,103.000 10.408 M283.895 12.211 C 283.685 12.442,283.386 12.632,283.231 12.632 C 283.048 12.632,282.953 12.875,282.964 13.316 C 282.973 13.692,283.029 13.879,283.089 13.732 C 283.148 13.584,283.519 13.328,283.914 13.163 C 284.465 12.933,284.632 12.739,284.632 12.327 C 284.632 11.680,284.407 11.645,283.895 12.211 M100.948 12.421 C 100.643 12.757,100.613 12.908,100.811 13.106 C 101.143 13.438,101.789 13.052,101.789 12.521 C 101.789 11.970,101.398 11.923,100.948 12.421 M281.731 14.741 C 281.573 14.992,281.558 15.185,281.689 15.266 C 281.966 15.437,282.316 15.201,282.316 14.842 C 282.316 14.368,281.998 14.313,281.731 14.741 M98.985 14.797 C 98.841 14.970,98.832 15.177,98.959 15.375 C 99.133 15.646,99.184 15.645,99.365 15.368 C 99.803 14.702,99.474 14.208,98.985 14.797 M280.692 15.772 C 280.501 16.077,280.510 16.251,280.732 16.556 C 281.001 16.924,281.027 16.912,281.167 16.353 C 281.352 15.618,281.032 15.227,280.692 15.772 M96.791 17.168 C 95.462 18.466,95.225 19.120,95.479 20.781 C 95.803 22.890,95.821 134.349,95.498 135.047 C 95.132 135.838,95.290 136.996,95.802 137.270 C 96.051 137.403,128.335 137.457,187.409 137.422 L 278.632 137.368 280.053 135.961 C 281.408 134.620,281.950 133.474,281.230 133.474 C 280.758 133.474,279.531 132.357,279.241 131.663 C 278.794 130.593,278.802 21.066,279.249 19.362 C 279.657 17.808,279.470 17.621,277.785 17.897 C 276.121 18.169,101.703 18.173,100.526 17.900 C 99.942 17.765,99.459 17.443,98.947 16.849 C 98.042 15.798,98.222 15.771,96.791 17.168 M79.566 19.243 C 79.162 20.157,79.156 21.077,79.209 78.607 L 79.263 137.043 79.816 137.596 C 80.448 138.228,81.624 137.916,82.165 136.973 C 82.507 136.377,82.665 21.361,82.325 20.186 C 81.732 18.133,80.277 17.636,79.566 19.243 M81.167 19.675 L 81.684 20.191 81.684 78.082 C 81.684 137.283,81.690 136.889,80.844 137.157 C 79.717 137.515,79.789 141.519,79.789 78.510 C 79.789 14.380,79.700 18.207,81.167 19.675 M274.960 19.581 C 276.274 19.831,276.949 20.380,277.499 21.649 C 277.883 22.534,277.895 24.223,277.895 78.612 L 277.895 134.663 277.421 135.097 C 275.953 136.439,285.096 136.316,186.842 136.316 C 89.229 136.316,97.754 136.420,96.368 135.205 C 95.826 134.729,95.792 22.292,96.334 21.149 C 96.760 20.251,97.540 19.736,98.737 19.562 C 100.373 19.325,273.706 19.344,274.960 19.581 M312.077 121.917 C 311.535 122.180,310.582 123.058,309.551 124.245 C 308.640 125.294,307.042 127.121,306.000 128.306 C 304.958 129.491,303.726 130.920,303.263 131.480 C 302.800 132.041,301.971 132.952,301.421 133.506 C 300.871 134.060,300.421 134.593,300.421 134.691 C 300.421 134.788,300.224 135.080,299.982 135.339 C 298.726 136.687,298.898 137.895,300.347 137.895 C 301.182 137.895,302.526 137.384,302.526 137.067 C 302.526 136.948,303.782 135.434,305.316 133.702 C 307.992 130.682,310.434 127.881,311.756 126.316 C 312.098 125.911,312.774 125.115,313.257 124.549 C 314.191 123.453,314.243 123.004,313.560 121.947 C 313.194 121.381,313.182 121.381,312.077 121.917 M290.602 122.515 C 290.519 122.931,290.310 123.254,290.085 123.313 C 289.867 123.370,289.681 123.647,289.643 123.969 C 289.599 124.350,289.438 124.546,289.134 124.590 C 288.531 124.676,287.869 126.105,288.432 126.105 C 288.554 126.105,288.753 125.821,288.874 125.474 C 288.995 125.126,289.229 124.842,289.394 124.842 C 289.559 124.842,289.782 124.611,289.890 124.329 C 289.997 124.046,290.268 123.717,290.492 123.597 C 290.975 123.339,291.273 122.347,290.962 122.035 C 290.809 121.883,290.699 122.030,290.602 122.515 M313.263 122.614 C 313.263 122.779,313.312 123.040,313.371 123.195 C 313.431 123.350,313.040 123.950,312.502 124.528 C 311.965 125.106,311.055 126.171,310.480 126.895 C 309.905 127.618,309.370 128.211,309.289 128.211 C 309.209 128.211,308.979 128.489,308.778 128.828 C 308.578 129.168,307.908 129.997,307.291 130.670 C 304.338 133.892,302.338 136.231,302.220 136.600 C 302.034 137.189,300.674 137.484,300.029 137.075 C 299.632 136.823,300.582 135.164,301.871 133.859 C 302.405 133.318,303.235 132.418,303.714 131.859 C 304.194 131.300,305.284 130.046,306.135 129.074 C 306.987 128.102,308.111 126.788,308.632 126.155 C 311.149 123.097,313.263 121.480,313.263 122.614 M286.907 126.557 C 286.532 126.694,286.258 127.012,286.098 127.495 C 285.966 127.897,285.581 128.430,285.244 128.679 C 284.907 128.928,284.632 129.222,284.632 129.332 C 284.632 129.442,284.480 129.643,284.296 129.778 C 284.089 129.929,283.996 130.222,284.054 130.538 C 284.146 131.045,284.152 131.043,284.422 130.405 C 284.631 129.911,284.913 129.693,285.610 129.487 C 286.404 129.253,286.555 129.111,286.768 128.401 C 286.902 127.952,287.234 127.439,287.506 127.261 C 288.486 126.619,288.070 126.131,286.907 126.557 M282.947 131.684 C 282.947 132.102,282.841 132.211,282.433 132.211 C 281.854 132.211,281.534 132.566,281.838 132.870 C 282.027 133.058,282.778 132.451,283.535 131.499 C 283.767 131.207,283.744 131.158,283.377 131.158 C 283.059 131.158,282.947 131.295,282.947 131.684 M96.122 150.552 C 94.515 150.928,94.126 152.246,95.421 152.923 C 96.406 153.439,278.115 153.361,278.895 152.844 C 280.047 152.081,279.453 150.915,277.726 150.551 C 276.313 150.253,97.392 150.254,96.122 150.552 M278.263 151.027 C 278.852 151.251,278.924 152.285,278.368 152.556 C 277.903 152.785,97.388 152.905,96.287 152.678 C 95.570 152.530,95.466 152.431,95.408 151.841 C 95.340 151.140,95.387 151.108,96.842 150.876 C 97.919 150.705,277.808 150.855,278.263 151.027 " stroke="none" fill="#858f85" fill-rule="evenodd"></path></g></svg>