<svg xmlns="http://www.w3.org/2000/svg" width="24.234" height="24.35" viewBox="0 0 24.234 24.35"><defs><style>.a{fill:#000f08;fill-rule:evenodd;}</style></defs><path class="a" d="M20.953,3.539A12.069,12.069,0,0,0,1.962,18.1L.25,24.35l6.4-1.678a12.053,12.053,0,0,0,5.766,1.469h.005a12.071,12.071,0,0,0,8.535-20.6ZM12.417,22.1h0a10.016,10.016,0,0,1-5.1-1.4l-.366-.217-3.8,1,1.013-3.7L3.922,17.4a10.029,10.029,0,1,1,8.5,4.7Zm5.5-7.511c-.3-.151-1.784-.88-2.06-.981s-.477-.151-.678.151-.779.981-.955,1.182-.352.226-.653.075a8.235,8.235,0,0,1-2.425-1.5A9.094,9.094,0,0,1,9.47,11.435c-.176-.3,0-.449.132-.615a8.528,8.528,0,0,0,.754-1.031.555.555,0,0,0-.025-.528c-.075-.151-.678-1.635-.929-2.239-.245-.588-.493-.508-.678-.517s-.377-.011-.578-.011a1.107,1.107,0,0,0-.8.377A3.381,3.381,0,0,0,6.286,9.386,5.865,5.865,0,0,0,7.517,12.5a13.439,13.439,0,0,0,5.15,4.552,17.257,17.257,0,0,0,1.719.635,4.133,4.133,0,0,0,1.9.119,3.106,3.106,0,0,0,2.035-1.434,2.519,2.519,0,0,0,.176-1.434C18.421,14.818,18.22,14.743,17.919,14.592Zm0,0" transform="translate(-0.25)"/></svg>